<svg width="20" height="20" viewBox="0 0 20 20" fill="none" xmlns="http://www.w3.org/2000/svg">
<g clip-path="url(#clip0_1586_7664)">
<path d="M7.375 17.7861C7.82101 18.7945 8.83037 19.5001 10.002 19.5001C11.1736 19.5001 12.1829 18.7945 12.629 17.7861H7.375Z" fill="white"/>
<path d="M10.0009 2.31527C10.7741 2.31527 11.5165 2.45168 12.2054 2.70143V2.61657C12.2054 1.44949 11.2559 0.5 10.0889 0.5H9.91345C8.74636 0.5 7.79688 1.44949 7.79688 2.61657V2.70035C8.48542 2.45135 9.22757 2.31527 10.0009 2.31527Z" fill="white"/>
<path d="M16.9554 16.6711H3.04101C2.77777 16.6711 2.53664 16.4936 2.48189 16.2361C2.4277 15.9811 2.54389 15.7295 2.77963 15.6206C2.83557 15.5843 3.25664 15.2899 3.67819 14.3991C4.45242 12.7632 4.61493 10.4588 4.61493 8.81372C4.61493 5.84546 7.02979 3.43066 9.99802 3.43066C12.9592 3.43066 15.3696 5.83382 15.3811 8.79235C15.3813 8.79944 15.3815 8.80658 15.3815 8.81372C15.3815 10.4588 15.544 12.7632 16.3182 14.3991C16.7398 15.2899 17.1608 15.5844 17.2168 15.6206C17.4525 15.7295 17.5688 15.9811 17.5145 16.2361C17.4598 16.4936 17.2187 16.6711 16.9554 16.6711ZM17.223 15.6245H17.2234H17.223Z" fill="white"/>
</g>
<defs>
<clipPath id="clip0_1586_7664">
<rect width="19" height="19" fill="white" transform="translate(0.5 0.5)"/>
</clipPath>
</defs>
</svg>
