<svg width="18" height="18" viewBox="0 0 18 18" fill="none" xmlns="http://www.w3.org/2000/svg">
<g clip-path="url(#clip0_1586_7686)">
<path d="M15.3642 2.63676C11.8488 -0.878655 6.15897 -0.879183 2.64306 2.63676C-0.183847 5.46363 -0.718035 9.66698 0.953243 13.0144L0.0266905 17.09C-0.093742 17.6198 0.381022 18.0947 0.910953 17.9743L4.98655 17.0477C10.9124 20.0064 17.999 15.723 17.999 8.99737C17.999 6.59471 17.0633 4.33579 15.3642 2.63676ZM10.8801 11.2374H5.25075C4.84269 11.2374 4.5119 10.9066 4.5119 10.4985C4.5119 10.0905 4.84269 9.75966 5.25075 9.75966H10.8801C11.2881 9.75966 11.6189 10.0905 11.6189 10.4985C11.6189 10.9066 11.2881 11.2374 10.8801 11.2374ZM12.7565 8.23506H5.25075C4.84269 8.23506 4.5119 7.90426 4.5119 7.49621C4.5119 7.08815 4.84269 6.75736 5.25075 6.75736H12.7565C13.1646 6.75736 13.4954 7.08815 13.4954 7.49621C13.4954 7.90426 13.1646 8.23506 12.7565 8.23506Z" fill="white"/>
</g>
<defs>
<clipPath id="clip0_1586_7686">
<rect width="18" height="18" fill="white"/>
</clipPath>
</defs>
</svg>
