<svg width="325" height="182" viewBox="0 0 325 182" fill="none" xmlns="http://www.w3.org/2000/svg">
<g clip-path="url(#clip0_102_559)">
<rect width="325" height="182" fill="white"/>
<path d="M0 0H325V182H0V0Z" fill="#B3EBC9"/>
<path d="M205.88 52.7505C204.83 50.5822 203.671 48.4686 202.408 46.4177C187.64 22.9521 148.116 10.1777 128.536 34.4305C123.867 40.2129 122.241 47.1985 119.099 53.8289C111.956 68.9073 98.6188 77.9217 90.238 91.8833C83.7484 102.706 84.5996 116.578 88.2316 128.277C92.1644 140.991 99.086 149.88 110.158 156.623C122.571 164.187 135.844 162.088 149.262 159.455C155.297 158.271 161.518 157.061 167.684 157.512C175.409 158.079 183.044 160.36 190.699 161.467C198.667 162.619 206.936 162.891 214.616 160.379C239.198 152.338 245.016 114.651 234.913 93.0609C231.336 85.4193 225.268 79.5249 219.636 73.5409C213.56 67.0865 209.832 60.7665 205.88 52.7505Z" fill="#02BD4D"/>
<path opacity="0.7" d="M205.88 52.7505C204.83 50.5822 203.671 48.4686 202.408 46.4177C187.64 22.9521 148.116 10.1777 128.536 34.4305C123.867 40.2129 122.241 47.1985 119.099 53.8289C111.956 68.9073 98.6188 77.9217 90.238 91.8833C83.7484 102.706 84.5996 116.578 88.2316 128.277C92.1644 140.991 99.086 149.88 110.158 156.623C122.571 164.187 135.844 162.088 149.262 159.455C155.297 158.271 161.518 157.061 167.684 157.512C175.409 158.079 183.044 160.36 190.699 161.467C198.667 162.619 206.936 162.891 214.616 160.379C239.198 152.338 245.016 114.651 234.913 93.0609C231.336 85.4193 225.268 79.5249 219.636 73.5409C213.56 67.0865 209.832 60.7665 205.88 52.7505Z" fill="#D5EEDF"/>
<path d="M238.274 151.423H98.1427C98.1002 151.423 98.0595 151.406 98.0295 151.376C97.9995 151.346 97.9827 151.305 97.9827 151.263C97.9827 151.22 97.9995 151.179 98.0295 151.149C98.0595 151.119 98.1002 151.103 98.1427 151.103H238.274C238.316 151.103 238.357 151.119 238.387 151.149C238.417 151.179 238.434 151.22 238.434 151.263C238.433 151.305 238.416 151.345 238.386 151.375C238.356 151.405 238.316 151.422 238.274 151.423Z" fill="#263238"/>
<path d="M96.4179 151.423H88.2899C88.2477 151.422 88.2075 151.405 88.1777 151.375C88.1478 151.345 88.1307 151.305 88.1299 151.263C88.1299 151.22 88.1467 151.179 88.1767 151.149C88.2068 151.119 88.2474 151.103 88.2899 151.103H96.4179C96.4603 151.103 96.501 151.119 96.531 151.149C96.561 151.179 96.5779 151.22 96.5779 151.263C96.5771 151.305 96.5599 151.345 96.5301 151.375C96.5003 151.405 96.4601 151.422 96.4179 151.423Z" fill="#263238"/>
<path d="M234.495 110.018C234.495 110.018 233.019 112.024 231.663 113.781C230.306 115.538 229.077 116.661 227.723 117.045C226.632 117.349 223.951 117.57 222.943 117.646L221.074 128.229H219.842L222.549 117.669C222.549 117.451 222.616 114.731 224.149 113.166C225.749 111.534 230.92 111.912 231.659 111.534C232.399 111.157 234.495 110.018 234.495 110.018ZM220.715 111.198C219.784 113.758 217.813 126.635 217.624 128.354L216.271 128.104V112.651C216.271 112.651 215.899 110.142 214.671 109.262C213.442 108.382 212.824 108.386 212.824 108.386C211.374 108.517 209.958 108.899 208.639 109.515C207.502 110.052 206.483 110.806 205.637 111.736C207.512 111.854 210.354 112.018 211.471 113.154C213.007 114.718 213.071 117.438 213.071 117.656L215.781 128.216H214.549L212.68 117.634C211.672 117.557 208.987 117.336 207.899 117.032C206.619 116.674 205.426 115.627 204.143 114.005C203.547 115.24 203.096 116.53 203.096 116.53C203.157 115.454 203.339 114.389 203.64 113.355C202.383 111.71 201.125 110.005 201.125 110.005C201.125 110.005 203.218 111.134 203.957 111.509C204.059 111.553 204.167 111.583 204.277 111.598C204.665 110.704 205.182 109.871 205.81 109.125C208.399 106.11 211.231 105.736 213.077 106.363C214.923 106.99 215.909 108.12 216.034 108.498C216.159 108.875 216.773 111.378 216.773 111.378C216.773 111.378 216.155 106.859 215.787 104.338C215.419 101.816 215.909 98.8144 216.648 96.1776C217.387 93.5408 219.605 88.5232 219.605 88.5232C219.605 88.5232 221.698 94.4208 222.191 99.192C222.456 101.439 222.315 103.715 221.775 105.912C223.003 103.858 225.048 102.072 227.24 100.936C231.304 98.8016 233.89 99.6816 233.89 99.6816C233.89 99.6816 231.426 100.059 230.072 101.314C228.719 102.568 226.255 106.21 225.272 108.594C224.29 110.978 220.84 111.605 220.84 111.605C220.783 111.499 220.747 111.349 220.715 111.198ZM220.632 110.706C220.537 109.931 220.58 109.145 220.76 108.386C220.699 108.475 220.639 108.558 220.581 108.635C219.595 109.89 217.381 112.904 217.381 113.656C217.381 114.056 217.451 116.107 217.515 117.95L217.749 117.925C217.749 117.925 218.859 114.034 219.599 112.526C219.906 111.899 220.251 111.291 220.632 110.706Z" fill="#263238"/>
<path d="M224.767 139.685L217.007 139.317L209.25 139.685L206.047 151.259H207.403L211.221 145.227H217.007H222.795L226.613 151.259H227.97L224.767 139.685Z" fill="white"/>
<path d="M227.96 151.422H226.603C226.576 151.422 226.55 151.415 226.526 151.402C226.503 151.388 226.483 151.369 226.469 151.346L222.709 145.4H211.32L207.551 151.358C207.537 151.382 207.517 151.401 207.494 151.414C207.47 151.428 207.443 151.435 207.416 151.435H206.059C206.035 151.435 206.011 151.428 205.989 151.417C205.967 151.406 205.948 151.39 205.933 151.37C205.918 151.35 205.908 151.327 205.903 151.303C205.899 151.279 205.9 151.254 205.906 151.23L209.106 139.656C209.115 139.623 209.134 139.594 209.16 139.573C209.187 139.551 209.219 139.539 209.253 139.538L217.01 139.17L224.76 139.525C224.794 139.526 224.827 139.538 224.854 139.559C224.88 139.581 224.899 139.61 224.907 139.643L228.107 151.218C228.114 151.241 228.115 151.266 228.11 151.29C228.105 151.315 228.095 151.337 228.08 151.357C228.065 151.377 228.046 151.393 228.024 151.404C228.003 151.416 227.978 151.422 227.954 151.422H227.96ZM226.68 151.102H227.736L224.619 139.838L216.978 139.474L209.352 139.838L206.235 151.102H207.291L211.061 145.141C211.077 145.119 211.097 145.1 211.121 145.088C211.145 145.075 211.171 145.068 211.199 145.067H222.773C222.8 145.067 222.827 145.074 222.851 145.087C222.875 145.1 222.895 145.118 222.911 145.141L226.68 151.102Z" fill="#263238"/>
<path d="M209.25 127.861H224.645V141.678C224.645 142.162 224.453 142.626 224.111 142.968C223.769 143.31 223.305 143.502 222.821 143.502H211.074C210.59 143.502 210.126 143.31 209.784 142.968C209.442 142.626 209.25 142.162 209.25 141.678V127.861Z" fill="white"/>
<path d="M222.821 143.662H211.074C210.548 143.662 210.044 143.452 209.672 143.08C209.3 142.708 209.091 142.204 209.09 141.678V127.861C209.09 127.818 209.107 127.778 209.137 127.748C209.167 127.718 209.207 127.701 209.25 127.701H224.645C224.687 127.702 224.727 127.719 224.757 127.749C224.787 127.778 224.804 127.819 224.805 127.861V141.678C224.804 142.204 224.595 142.708 224.223 143.08C223.851 143.452 223.347 143.662 222.821 143.662ZM209.4 128.021V141.678C209.4 142.12 209.576 142.543 209.888 142.855C210.2 143.167 210.623 143.342 211.064 143.342H222.811C223.253 143.342 223.675 143.166 223.987 142.854C224.299 142.542 224.475 142.119 224.475 141.678V128.021H209.4Z" fill="#263238"/>
<path d="M217.563 139.685H216.331V151.262H217.563V139.685Z" fill="white"/>
<path d="M217.563 151.422H216.331C216.289 151.422 216.248 151.406 216.218 151.376C216.188 151.346 216.171 151.305 216.171 151.262V139.685C216.171 139.642 216.188 139.602 216.218 139.572C216.248 139.542 216.289 139.525 216.331 139.525H217.563C217.606 139.525 217.647 139.542 217.677 139.572C217.707 139.602 217.723 139.642 217.723 139.685V151.262C217.723 151.305 217.705 151.345 217.676 151.375C217.646 151.404 217.606 151.422 217.563 151.422ZM216.491 151.102H217.4V139.845H216.488L216.491 151.102Z" fill="#263238"/>
<path d="M217.455 68.6001H183.295C183.252 68.6001 183.212 68.5832 183.182 68.5532C183.152 68.5232 183.135 68.4825 183.135 68.4401V26.4369C183.135 26.3944 183.152 26.3537 183.182 26.3237C183.212 26.2937 183.252 26.2769 183.295 26.2769H217.455C217.497 26.2769 217.538 26.2937 217.568 26.3237C217.598 26.3537 217.615 26.3944 217.615 26.4369V68.4241C217.617 68.4464 217.615 68.4689 217.607 68.4902C217.6 68.5115 217.589 68.5311 217.574 68.5477C217.559 68.5643 217.54 68.5775 217.52 68.5865C217.499 68.5956 217.477 68.6002 217.455 68.6001ZM183.455 68.2801H217.295V26.5969H183.455V68.2801Z" fill="#263238"/>
<path d="M215.868 66.6385H184.879C184.836 66.6385 184.796 66.6217 184.766 66.5917C184.736 66.5617 184.719 66.521 184.719 66.4785V28.3985C184.719 28.3561 184.736 28.3154 184.766 28.2854C184.796 28.2554 184.836 28.2385 184.879 28.2385H215.868C215.91 28.2385 215.951 28.2554 215.981 28.2854C216.011 28.3154 216.028 28.3561 216.028 28.3985V66.4785C216.028 66.4995 216.023 66.5203 216.015 66.5398C216.007 66.5592 215.996 66.5768 215.981 66.5917C215.966 66.6065 215.948 66.6183 215.929 66.6264C215.909 66.6344 215.889 66.6385 215.868 66.6385ZM185.039 66.3185H215.708V28.5585H185.039V66.3185Z" fill="#263238"/>
<path d="M191.378 66.5489C191.344 66.5489 191.311 66.5384 191.284 66.5187C191.257 66.4991 191.237 66.4714 191.226 66.4395C191.215 66.4077 191.215 66.3733 191.225 66.3412C191.235 66.3092 191.255 66.2811 191.282 66.2609C194.6 63.7809 197.471 59.7233 199.816 54.2065C205.599 40.5969 209.935 34.8977 215.816 33.1793C215.836 33.173 215.858 33.1708 215.879 33.1729C215.9 33.175 215.92 33.1813 215.939 33.1914C215.957 33.2016 215.973 33.2154 215.986 33.232C216 33.2486 216.009 33.2677 216.015 33.2881C216.027 33.3284 216.022 33.3719 216.002 33.409C215.983 33.4461 215.949 33.474 215.909 33.4865C210.203 35.1505 205.775 40.9969 200.111 54.3313C197.743 59.9025 194.837 64.0017 191.471 66.5169C191.444 66.5377 191.411 66.5489 191.378 66.5489Z" fill="#263238"/>
<path d="M215.861 60.8529C215.83 60.8539 215.8 60.8449 215.775 60.8274C201.941 51.621 191.311 52.1394 184.827 54.197C184.785 54.2097 184.739 54.205 184.7 54.184C184.661 54.163 184.632 54.1274 184.619 54.0849C184.607 54.0425 184.611 53.9968 184.632 53.9578C184.653 53.9187 184.689 53.8897 184.731 53.877C191.282 51.8002 202.011 51.2689 215.951 60.5489C215.986 60.5724 216.01 60.6088 216.018 60.6501C216.027 60.6915 216.019 60.7345 215.995 60.7697C215.983 60.7945 215.963 60.8153 215.94 60.83C215.916 60.8446 215.889 60.8526 215.861 60.8529Z" fill="#263238"/>
<path d="M128.645 77.2112C128.56 77.2112 128.479 77.1775 128.419 77.1175C128.359 77.0575 128.325 76.9761 128.325 76.8912C128.325 75.9856 128.325 75.2912 128.325 75.2912C128.325 75.2063 128.359 75.1249 128.419 75.0649C128.479 75.0049 128.56 74.9712 128.645 74.9712C128.73 74.9712 128.811 75.0049 128.871 75.0649C128.931 75.1249 128.965 75.2063 128.965 75.2912C128.965 75.2912 128.965 75.9888 128.965 76.8912C128.965 76.9761 128.931 77.0575 128.871 77.1175C128.811 77.1775 128.73 77.2112 128.645 77.2112Z" fill="#263238"/>
<path d="M131.448 85.2401C130.597 85.2568 129.764 84.9938 129.077 84.4913C128.017 83.6433 128.168 82.4945 128.325 81.2913C128.373 80.9041 128.424 80.5041 128.44 80.1073C128.465 79.2273 128.478 77.8865 128.485 76.9073C128.485 76.8649 128.501 76.8242 128.531 76.7942C128.561 76.7642 128.602 76.7473 128.645 76.7473C128.687 76.7473 128.728 76.7642 128.758 76.7942C128.788 76.8242 128.805 76.8649 128.805 76.9073C128.805 77.8673 128.785 79.2209 128.757 80.1073C128.757 80.5201 128.693 80.9265 128.641 81.3233C128.488 82.4945 128.357 83.5089 129.281 84.2449C129.712 84.5448 130.2 84.7523 130.715 84.8541C131.23 84.956 131.761 84.9502 132.273 84.8369C132.607 84.7807 132.923 84.6511 133.2 84.4574C133.476 84.2636 133.707 84.0107 133.873 83.7169C134.485 82.4913 135.336 64.4305 135.701 55.0513C135.703 55.0092 135.722 54.9696 135.753 54.941C135.784 54.9123 135.825 54.8968 135.867 54.8977C135.888 54.8986 135.909 54.9035 135.928 54.9123C135.947 54.9212 135.964 54.9336 135.978 54.9491C135.993 54.9645 136.004 54.9827 136.011 55.0024C136.018 55.0222 136.021 55.0431 136.021 55.0641C135.976 56.1713 134.955 82.2641 134.158 83.8641C133.97 84.2015 133.708 84.492 133.391 84.7136C133.075 84.9353 132.712 85.0825 132.331 85.1441C132.041 85.2076 131.745 85.2398 131.448 85.2401Z" fill="#263238"/>
<path d="M123.025 33.3489H121.118V151.259H123.025V33.3489Z" fill="white"/>
<path d="M123.022 151.422H121.118C121.076 151.422 121.035 151.405 121.005 151.375C120.975 151.345 120.958 151.305 120.958 151.262V33.3487C120.958 33.3063 120.975 33.2656 121.005 33.2356C121.035 33.2056 121.076 33.1887 121.118 33.1887H123.022C123.064 33.1887 123.105 33.2056 123.135 33.2356C123.165 33.2656 123.182 33.3063 123.182 33.3487V151.262C123.182 151.305 123.165 151.345 123.135 151.375C123.105 151.405 123.064 151.422 123.022 151.422ZM121.278 151.102H122.862V33.5087H121.278V151.102Z" fill="#263238"/>
<path d="M131.73 150.139H112.523V151.307H131.73V150.139Z" fill="white"/>
<path d="M131.729 151.48H112.529C112.487 151.48 112.446 151.463 112.416 151.433C112.386 151.403 112.369 151.362 112.369 151.32V150.152C112.369 150.11 112.386 150.069 112.416 150.039C112.446 150.009 112.487 149.992 112.529 149.992H131.729C131.772 149.992 131.812 150.009 131.842 150.039C131.872 150.069 131.889 150.11 131.889 150.152V151.32C131.889 151.362 131.872 151.403 131.842 151.433C131.812 151.463 131.772 151.48 131.729 151.48ZM112.683 151.16H131.563V150.312H112.683V151.16Z" fill="#263238"/>
<path d="M130.789 60.2031H114.072V75.0799H130.789V60.2031Z" fill="white"/>
<path d="M130.789 75.24H114.072C114.03 75.24 113.989 75.2232 113.959 75.1932C113.929 75.1631 113.912 75.1225 113.912 75.08V60.2032C113.912 60.1608 113.929 60.1201 113.959 60.0901C113.989 60.0601 114.03 60.0432 114.072 60.0432H130.789C130.831 60.0432 130.872 60.0601 130.902 60.0901C130.932 60.1201 130.949 60.1608 130.949 60.2032V75.08C130.949 75.1225 130.932 75.1631 130.902 75.1932C130.872 75.2232 130.831 75.24 130.789 75.24ZM114.232 74.92H130.629V60.3632H114.232V74.92Z" fill="#263238"/>
<path d="M129.112 62.8911H120.072V72.3887H129.112V62.8911Z" fill="white"/>
<path d="M129.115 72.5488H120.072C120.03 72.5488 119.989 72.5319 119.959 72.5019C119.929 72.4719 119.912 72.4312 119.912 72.3888V62.8912C119.913 62.849 119.93 62.8088 119.96 62.779C119.99 62.7491 120.03 62.732 120.072 62.7312H129.115C129.157 62.732 129.198 62.7491 129.228 62.779C129.257 62.8088 129.274 62.849 129.275 62.8912V72.3888C129.275 72.4312 129.258 72.4719 129.228 72.5019C129.198 72.5319 129.158 72.5488 129.115 72.5488ZM120.232 72.2288H128.955V63.0512H120.232V72.2288Z" fill="#263238"/>
<path d="M130.789 60.2031H121.749V75.0799H130.789V60.2031Z" fill="white"/>
<path d="M130.789 75.24H121.749C121.706 75.24 121.666 75.2232 121.636 75.1932C121.606 75.1631 121.589 75.1225 121.589 75.08V60.2032C121.589 60.1608 121.606 60.1201 121.636 60.0901C121.666 60.0601 121.706 60.0432 121.749 60.0432H130.789C130.831 60.0432 130.872 60.0601 130.902 60.0901C130.932 60.1201 130.949 60.1608 130.949 60.2032V75.08C130.949 75.1225 130.932 75.1631 130.902 75.1932C130.872 75.2232 130.831 75.24 130.789 75.24ZM121.909 74.92H130.629V60.3632H121.909V74.92Z" fill="#263238"/>
<path d="M130.052 61.2336H122.484V74.0496H130.052V61.2336Z" fill="#02BD4D"/>
<path d="M130.04 74.2097H122.485C122.443 74.2097 122.402 74.1928 122.372 74.1628C122.342 74.1328 122.325 74.0921 122.325 74.0497V61.2401C122.325 61.1976 122.342 61.1569 122.372 61.1269C122.402 61.0969 122.443 61.0801 122.485 61.0801H130.04C130.083 61.0801 130.124 61.0969 130.154 61.1269C130.184 61.1569 130.2 61.1976 130.2 61.2401V74.0401C130.202 74.0619 130.199 74.0837 130.191 74.1043C130.184 74.1248 130.172 74.1436 130.157 74.1595C130.142 74.1754 130.124 74.188 130.104 74.1967C130.084 74.2053 130.062 74.2097 130.04 74.2097ZM122.632 73.8897H129.88V61.3937H122.645L122.632 73.8897Z" fill="#263238"/>
<path d="M124.324 67.752H123.028V69.0479H124.324V67.752Z" fill="white"/>
<path d="M124.325 69.208H123.045C123.003 69.2072 122.962 69.1901 122.933 69.1603C122.903 69.1304 122.886 69.0902 122.885 69.048V67.752C122.885 67.7096 122.902 67.6689 122.932 67.6389C122.962 67.6089 123.002 67.592 123.045 67.592H124.325C124.367 67.592 124.408 67.6089 124.438 67.6389C124.468 67.6689 124.485 67.7096 124.485 67.752V69.048C124.485 69.0905 124.468 69.1312 124.438 69.1612C124.408 69.1912 124.367 69.208 124.325 69.208ZM123.189 68.888H124.149V67.912H123.189V68.888Z" fill="#263238"/>
<path d="M126.068 67.752H124.772V69.0479H126.068V67.752Z" fill="white"/>
<path d="M126.072 69.208H124.773C124.731 69.2072 124.691 69.1901 124.661 69.1603C124.631 69.1304 124.614 69.0902 124.613 69.048V67.752C124.613 67.7096 124.63 67.6689 124.66 67.6389C124.69 67.6089 124.731 67.592 124.773 67.592H126.072C126.115 67.592 126.156 67.6089 126.186 67.6389C126.216 67.6689 126.232 67.7096 126.232 67.752V69.048C126.232 69.0902 126.215 69.1304 126.185 69.1603C126.155 69.1901 126.115 69.2072 126.072 69.208ZM124.933 68.888H125.912V67.912H124.92L124.933 68.888Z" fill="#263238"/>
<path d="M127.816 67.752H126.52V69.0479H127.816V67.752Z" fill="white"/>
<path d="M127.816 69.208H126.52C126.478 69.208 126.437 69.1912 126.407 69.1612C126.377 69.1312 126.36 69.0905 126.36 69.048V67.752C126.36 67.7096 126.377 67.6689 126.407 67.6389C126.437 67.6089 126.478 67.592 126.52 67.592H127.816C127.859 67.592 127.899 67.6089 127.929 67.6389C127.959 67.6689 127.976 67.7096 127.976 67.752V69.048C127.976 69.0902 127.958 69.1304 127.929 69.1603C127.899 69.1901 127.859 69.2072 127.816 69.208ZM126.68 68.888H127.656V67.912H126.68V68.888Z" fill="#263238"/>
<path d="M129.56 67.752H128.264V69.0479H129.56V67.752Z" fill="white"/>
<path d="M129.56 69.208H128.264C128.222 69.208 128.181 69.1912 128.151 69.1612C128.121 69.1312 128.104 69.0905 128.104 69.048V67.752C128.104 67.7096 128.121 67.6689 128.151 67.6389C128.181 67.6089 128.222 67.592 128.264 67.592H129.56C129.603 67.592 129.644 67.6089 129.674 67.6389C129.704 67.6689 129.72 67.7096 129.72 67.752V69.048C129.72 69.0902 129.703 69.1304 129.673 69.1603C129.643 69.1901 129.603 69.2072 129.56 69.208ZM128.424 68.888H129.4V67.912H128.44L128.424 68.888Z" fill="#263238"/>
<path d="M124.324 69.6848H123.028V70.9808H124.324V69.6848Z" fill="white"/>
<path d="M124.325 71.1409H123.045C123.002 71.1409 122.962 71.124 122.932 71.094C122.902 71.064 122.885 71.0233 122.885 70.9809V69.6849C122.886 69.6427 122.903 69.6025 122.933 69.5727C122.962 69.5428 123.003 69.5257 123.045 69.5249H124.325C124.367 69.5249 124.408 69.5418 124.438 69.5718C124.468 69.6018 124.485 69.6425 124.485 69.6849V70.9809C124.485 71.0233 124.468 71.064 124.438 71.094C124.408 71.124 124.367 71.1409 124.325 71.1409ZM123.189 70.8209H124.149V69.8449H123.189V70.8209Z" fill="#263238"/>
<path d="M126.068 69.6848H124.772V70.9808H126.068V69.6848Z" fill="white"/>
<path d="M126.072 71.1409H124.773C124.731 71.1409 124.69 71.124 124.66 71.094C124.63 71.064 124.613 71.0233 124.613 70.9809V69.6849C124.614 69.6427 124.631 69.6025 124.661 69.5727C124.691 69.5428 124.731 69.5257 124.773 69.5249H126.072C126.115 69.5257 126.155 69.5428 126.185 69.5727C126.215 69.6025 126.232 69.6427 126.232 69.6849V70.9809C126.232 71.0233 126.216 71.064 126.186 71.094C126.156 71.124 126.115 71.1409 126.072 71.1409ZM124.933 70.8209H125.912V69.8449H124.92L124.933 70.8209Z" fill="#263238"/>
<path d="M127.816 69.6848H126.52V70.9808H127.816V69.6848Z" fill="white"/>
<path d="M127.816 71.1409H126.52C126.478 71.1409 126.437 71.124 126.407 71.094C126.377 71.064 126.36 71.0233 126.36 70.9809V69.6849C126.36 69.6425 126.377 69.6018 126.407 69.5718C126.437 69.5418 126.478 69.5249 126.52 69.5249H127.816C127.859 69.5257 127.899 69.5428 127.929 69.5727C127.958 69.6025 127.976 69.6427 127.976 69.6849V70.9809C127.976 71.0233 127.959 71.064 127.929 71.094C127.899 71.124 127.859 71.1409 127.816 71.1409ZM126.68 70.8209H127.656V69.8449H126.68V70.8209Z" fill="#263238"/>
<path d="M129.56 69.6848H128.264V70.9808H129.56V69.6848Z" fill="white"/>
<path d="M129.56 71.1409H128.264C128.222 71.1409 128.181 71.124 128.151 71.094C128.121 71.064 128.104 71.0233 128.104 70.9809V69.6849C128.104 69.6425 128.121 69.6018 128.151 69.5718C128.181 69.5418 128.222 69.5249 128.264 69.5249H129.56C129.603 69.5257 129.643 69.5428 129.673 69.5727C129.703 69.6025 129.72 69.6427 129.72 69.6849V70.9809C129.72 71.0233 129.704 71.064 129.674 71.094C129.644 71.124 129.603 71.1409 129.56 71.1409ZM128.424 70.8209H129.4V69.8449H128.44L128.424 70.8209Z" fill="#263238"/>
<path d="M121.87 112.61C119.502 112.61 119.169 110.846 119.166 110.827V68.648C119.166 67.1696 119.876 66.552 119.905 66.5264C119.937 66.4989 119.979 66.4852 120.022 66.4885C120.064 66.4918 120.103 66.5118 120.131 66.544C120.158 66.5763 120.172 66.6182 120.169 66.6605C120.165 66.7028 120.145 66.7421 120.113 66.7696C120.113 66.7696 119.473 67.336 119.473 68.648V110.798C119.473 110.84 119.793 112.462 122.251 112.274C124.811 112.069 125.742 110.885 126.296 110.178C126.849 109.47 133.601 99.9377 133.656 99.8545C133.667 99.8373 133.683 99.8226 133.7 99.8113C133.718 99.8001 133.737 99.7924 133.758 99.7888C133.779 99.7853 133.8 99.7858 133.82 99.7905C133.84 99.7952 133.859 99.8039 133.876 99.816C133.894 99.8282 133.908 99.8436 133.92 99.8615C133.931 99.8793 133.939 99.8992 133.942 99.9201C133.946 99.9409 133.945 99.9622 133.941 99.9828C133.936 100.003 133.927 100.023 133.915 100.04C133.64 100.43 127.112 109.64 126.536 110.373C125.96 111.106 124.958 112.376 122.26 112.594C122.142 112.603 122.004 112.61 121.87 112.61Z" fill="#263238"/>
<path d="M124.324 71.6208H123.028V72.9169H124.324V71.6208Z" fill="white"/>
<path d="M124.325 73.0801H123.045C123.002 73.0801 122.962 73.0633 122.932 73.0332C122.902 73.0032 122.885 72.9625 122.885 72.9201V71.6241C122.885 71.5817 122.902 71.541 122.932 71.511C122.962 71.481 123.002 71.4641 123.045 71.4641H124.325C124.367 71.4641 124.408 71.481 124.438 71.511C124.468 71.541 124.485 71.5817 124.485 71.6241V72.9201C124.485 72.9625 124.468 73.0032 124.438 73.0332C124.408 73.0633 124.367 73.0801 124.325 73.0801ZM123.189 72.7601H124.149V71.7841H123.189V72.7601Z" fill="#263238"/>
<path d="M126.068 71.6208H124.772V72.9169H126.068V71.6208Z" fill="white"/>
<path d="M126.072 73.0801H124.773C124.731 73.0801 124.69 73.0633 124.66 73.0332C124.63 73.0032 124.613 72.9625 124.613 72.9201V71.6241C124.613 71.5817 124.63 71.541 124.66 71.511C124.69 71.481 124.731 71.4641 124.773 71.4641H126.072C126.115 71.4641 126.156 71.481 126.186 71.511C126.216 71.541 126.232 71.5817 126.232 71.6241V72.9201C126.232 72.9625 126.216 73.0032 126.186 73.0332C126.156 73.0633 126.115 73.0801 126.072 73.0801ZM124.92 72.7601H125.9V71.7841H124.92V72.7601Z" fill="#263238"/>
<path d="M127.816 71.6208H126.52V72.9169H127.816V71.6208Z" fill="white"/>
<path d="M127.816 73.0801H126.52C126.478 73.0801 126.437 73.0633 126.407 73.0332C126.377 73.0032 126.36 72.9625 126.36 72.9201V71.6241C126.36 71.5817 126.377 71.541 126.407 71.511C126.437 71.481 126.478 71.4641 126.52 71.4641H127.816C127.859 71.4641 127.899 71.481 127.929 71.511C127.959 71.541 127.976 71.5817 127.976 71.6241V72.9201C127.976 72.9625 127.959 73.0032 127.929 73.0332C127.899 73.0633 127.859 73.0801 127.816 73.0801ZM126.68 72.7601H127.656V71.7841H126.68V72.7601Z" fill="#263238"/>
<path d="M129.56 71.6208H128.264V72.9169H129.56V71.6208Z" fill="white"/>
<path d="M129.56 73.0801H128.264C128.222 73.0801 128.181 73.0633 128.151 73.0332C128.121 73.0032 128.104 72.9625 128.104 72.9201V71.6241C128.104 71.5817 128.121 71.541 128.151 71.511C128.181 71.481 128.222 71.4641 128.264 71.4641H129.56C129.603 71.4641 129.644 71.481 129.674 71.511C129.704 71.541 129.72 71.5817 129.72 71.6241V72.9201C129.72 72.9625 129.704 73.0032 129.674 73.0332C129.644 73.0633 129.603 73.0801 129.56 73.0801ZM128.44 72.7601H129.4V71.7841H128.44V72.7601Z" fill="#263238"/>
<path d="M110.936 107.899L131.62 103.33H138.596L131.7 107.899H110.936Z" fill="white"/>
<path d="M131.701 108.059H110.936C110.894 108.064 110.851 108.051 110.818 108.025C110.785 107.998 110.763 107.959 110.759 107.917C110.754 107.874 110.766 107.832 110.793 107.798C110.82 107.765 110.859 107.744 110.901 107.739L131.586 103.16H138.597C138.631 103.159 138.664 103.17 138.691 103.19C138.719 103.211 138.738 103.239 138.748 103.272C138.759 103.305 138.759 103.341 138.747 103.374C138.735 103.407 138.713 103.435 138.684 103.454L131.791 108.024C131.765 108.043 131.734 108.056 131.701 108.059ZM112.402 107.739H131.64L138.04 103.49H131.64L112.402 107.739Z" fill="#263238"/>
<path d="M131.7 107.899H110.936V109.102H131.7V107.899Z" fill="white"/>
<path d="M131.701 109.262H110.936C110.894 109.262 110.854 109.245 110.824 109.215C110.794 109.185 110.777 109.145 110.776 109.102V107.899C110.776 107.857 110.793 107.816 110.823 107.786C110.853 107.756 110.894 107.739 110.936 107.739H131.701C131.744 107.739 131.784 107.756 131.814 107.786C131.844 107.816 131.861 107.857 131.861 107.899V109.102C131.861 109.145 131.844 109.186 131.814 109.216C131.784 109.246 131.744 109.262 131.701 109.262ZM111.096 108.942H131.541V108.059H111.096V108.942Z" fill="#263238"/>
<path d="M198.446 106.917C198.053 106.421 182.411 100.382 182.411 100.382L178.555 65.128C178.445 64.1263 177.969 63.2005 177.218 62.528C176.468 61.8554 175.495 61.4834 174.488 61.4832H149.752C148.744 61.4834 147.772 61.8554 147.021 62.528C146.271 63.2005 145.795 64.1263 145.685 65.128L141.845 100.382C141.845 100.382 126.2 106.421 125.793 106.917C125.387 107.413 125.297 108.6 125.793 108.994C126.075 109.221 128.593 109.189 130.699 109.118C131.077 109.106 131.454 109.17 131.807 109.306C132.16 109.442 132.482 109.647 132.754 109.91C133.026 110.173 133.242 110.488 133.39 110.837C133.538 111.185 133.614 111.559 133.614 111.938V151.262H190.629V111.938C190.628 111.559 190.704 111.185 190.852 110.837C190.999 110.489 191.215 110.174 191.487 109.911C191.758 109.648 192.08 109.442 192.433 109.306C192.786 109.17 193.163 109.106 193.541 109.118C195.646 109.189 198.165 109.221 198.446 108.994C198.942 108.6 198.84 107.41 198.446 106.917Z" fill="#02BD4D"/>
<path d="M190.628 151.423H133.614C133.572 151.423 133.531 151.406 133.501 151.376C133.471 151.346 133.454 151.305 133.454 151.263V111.938C133.457 111.579 133.386 111.224 133.246 110.894C133.106 110.564 132.9 110.265 132.641 110.018C132.385 109.769 132.081 109.575 131.748 109.446C131.415 109.318 131.059 109.257 130.702 109.269C126.081 109.423 125.8 109.195 125.694 109.109C125.547 108.963 125.435 108.785 125.367 108.589C125.299 108.394 125.276 108.185 125.3 107.979C125.301 107.56 125.429 107.15 125.668 106.805C126.065 106.309 138.865 101.346 141.668 100.261L145.508 65.1025C145.621 64.061 146.114 63.0977 146.894 62.3982C147.674 61.6987 148.685 61.3124 149.732 61.3137H174.468C175.516 61.3124 176.528 61.6985 177.308 62.398C178.089 63.0974 178.583 64.0607 178.696 65.1025L182.536 100.261C185.352 101.346 198.148 106.309 198.536 106.805C198.955 107.33 199.099 108.642 198.513 109.109C198.404 109.195 198.123 109.429 193.502 109.269C193.146 109.257 192.79 109.318 192.457 109.446C192.125 109.574 191.821 109.768 191.565 110.016C191.308 110.264 191.104 110.561 190.965 110.89C190.825 111.218 190.754 111.571 190.753 111.928V151.263C190.754 151.299 190.741 151.335 190.719 151.364C190.696 151.393 190.664 151.414 190.628 151.423ZM133.774 151.103H190.468V111.938C190.467 111.538 190.546 111.142 190.702 110.774C190.858 110.407 191.086 110.074 191.374 109.797C191.662 109.519 192.002 109.302 192.376 109.158C192.749 109.014 193.147 108.946 193.547 108.959C197.678 109.096 198.267 108.923 198.347 108.869C198.75 108.549 198.667 107.464 198.324 107.019C197.88 106.613 188.536 102.92 182.353 100.533C182.327 100.522 182.303 100.504 182.286 100.481C182.269 100.458 182.258 100.43 182.254 100.402L178.395 65.1473C178.295 64.181 177.84 63.286 177.118 62.6357C176.397 61.9855 175.459 61.6261 174.488 61.6273H149.752C148.78 61.6261 147.843 61.9855 147.121 62.6357C146.399 63.286 145.944 64.181 145.844 65.1473L142.004 100.402C142 100.431 141.989 100.458 141.971 100.481C141.953 100.504 141.929 100.522 141.902 100.533C135.71 102.923 126.35 106.613 125.928 107.023C125.737 107.312 125.635 107.652 125.633 107.999C125.614 108.155 125.629 108.313 125.676 108.464C125.724 108.614 125.803 108.752 125.908 108.869C125.988 108.923 126.577 109.096 130.708 108.959C131.108 108.946 131.506 109.013 131.879 109.157C132.252 109.301 132.592 109.518 132.88 109.796C133.167 110.074 133.396 110.407 133.552 110.775C133.709 111.142 133.789 111.538 133.79 111.938L133.774 151.103Z" fill="#263238"/>
<path d="M147 102.341C146.974 102.341 146.948 102.335 146.926 102.322C146.903 102.31 146.883 102.292 146.869 102.27C145.445 100.213 143.909 100.482 143.845 100.491C143.824 100.496 143.803 100.496 143.782 100.493C143.761 100.489 143.741 100.481 143.724 100.469C143.706 100.457 143.691 100.442 143.679 100.425C143.668 100.407 143.66 100.387 143.656 100.366C143.648 100.325 143.657 100.282 143.68 100.247C143.704 100.212 143.74 100.187 143.781 100.178C143.854 100.178 145.579 99.8577 147.131 102.098C147.143 102.115 147.152 102.134 147.157 102.154C147.161 102.175 147.162 102.196 147.158 102.216C147.155 102.237 147.147 102.256 147.136 102.274C147.125 102.291 147.11 102.307 147.093 102.318C147.065 102.335 147.032 102.343 147 102.341Z" fill="#263238"/>
<path d="M177.63 102.341C177.598 102.34 177.567 102.33 177.541 102.312C177.506 102.288 177.482 102.252 177.474 102.21C177.467 102.169 177.475 102.126 177.499 102.091C179.051 99.8513 180.779 100.171 180.853 100.171C180.894 100.181 180.93 100.205 180.953 100.241C180.976 100.276 180.985 100.319 180.977 100.36C180.973 100.381 180.965 100.4 180.953 100.418C180.941 100.435 180.926 100.45 180.909 100.462C180.891 100.473 180.872 100.481 180.851 100.485C180.83 100.489 180.809 100.489 180.789 100.485C180.721 100.485 179.189 100.207 177.765 102.264C177.75 102.287 177.731 102.306 177.707 102.32C177.684 102.333 177.657 102.341 177.63 102.341Z" fill="#263238"/>
<path d="M138.453 115.435H184.76V127.384C184.76 127.797 184.596 128.194 184.304 128.486C184.011 128.778 183.615 128.943 183.202 128.943H140.002C139.588 128.943 139.192 128.778 138.9 128.486C138.608 128.194 138.443 127.797 138.443 127.384V115.435H138.453Z" fill="#02BD4D"/>
<path d="M183.205 129.102H140.005C139.549 129.102 139.113 128.922 138.791 128.6C138.468 128.279 138.287 127.842 138.286 127.387V115.435C138.287 115.393 138.304 115.353 138.334 115.323C138.364 115.293 138.404 115.276 138.446 115.275H184.76C184.802 115.275 184.843 115.292 184.873 115.322C184.903 115.352 184.92 115.393 184.92 115.435V127.387C184.919 127.842 184.738 128.278 184.416 128.599C184.095 128.921 183.659 129.102 183.205 129.102ZM138.613 115.595V127.387C138.613 127.757 138.761 128.112 139.023 128.374C139.285 128.635 139.641 128.782 140.011 128.782H183.211C183.581 128.782 183.936 128.635 184.199 128.374C184.461 128.112 184.608 127.757 184.609 127.387V115.595H138.613Z" fill="#263238"/>
<path d="M138.453 151.336C138.411 151.335 138.371 151.318 138.341 151.288C138.311 151.258 138.294 151.218 138.293 151.176V147.192C138.294 147.15 138.311 147.11 138.341 147.08C138.371 147.05 138.411 147.033 138.453 147.032C138.495 147.032 138.536 147.049 138.566 147.079C138.596 147.109 138.613 147.15 138.613 147.192V151.176C138.613 151.218 138.596 151.259 138.566 151.289C138.536 151.319 138.495 151.336 138.453 151.336Z" fill="#263238"/>
<path d="M138.453 145.371C138.411 145.371 138.37 145.354 138.34 145.324C138.31 145.294 138.293 145.254 138.293 145.211V129.362C138.294 129.319 138.311 129.279 138.341 129.249C138.371 129.22 138.411 129.202 138.453 129.202C138.495 129.202 138.536 129.219 138.566 129.249C138.596 129.279 138.613 129.319 138.613 129.362V145.211C138.613 145.254 138.596 145.294 138.566 145.324C138.536 145.354 138.495 145.371 138.453 145.371Z" fill="#263238"/>
<path d="M184.847 151.336C184.804 151.336 184.763 151.319 184.733 151.289C184.703 151.259 184.687 151.218 184.687 151.176V133.035C184.687 132.993 184.703 132.952 184.733 132.922C184.763 132.892 184.804 132.875 184.847 132.875C184.889 132.875 184.93 132.892 184.96 132.922C184.99 132.952 185.007 132.993 185.007 133.035V151.176C185.007 151.218 184.99 151.259 184.96 151.289C184.93 151.319 184.889 151.336 184.847 151.336Z" fill="#263238"/>
<path d="M184.847 131.781C184.804 131.781 184.763 131.764 184.733 131.734C184.703 131.704 184.687 131.663 184.687 131.621V129.362C184.687 129.319 184.703 129.279 184.733 129.249C184.763 129.219 184.804 129.202 184.847 129.202C184.889 129.202 184.93 129.219 184.96 129.249C184.99 129.279 185.007 129.319 185.007 129.362V131.621C185.007 131.663 184.99 131.704 184.96 131.734C184.93 131.764 184.889 131.781 184.847 131.781Z" fill="#263238"/>
<path d="M144.44 89.0256L142.683 94.1296C142.683 94.1296 140.526 95.5536 138.203 97.0096C135.88 98.4656 134.101 99.2112 133.067 99.5152C132.034 99.8192 129.093 99.7744 128.587 99.9472C128.082 100.12 124.53 102.926 124.789 103.269C125.048 103.611 129.589 105.733 130.187 105.733C130.786 105.733 133.512 103.013 133.512 103.013C133.512 103.013 141.672 101.758 143.57 100.939C145.467 100.12 146.376 99.7744 146.507 99.6016C146.638 99.4288 150.779 91.0512 150.779 91.0512L144.44 89.0256Z" fill="#D1D1D1"/>
<path d="M130.158 105.906C129.547 105.906 124.952 103.803 124.632 103.378C124.609 103.343 124.594 103.304 124.589 103.263C124.584 103.222 124.589 103.18 124.603 103.141C124.818 102.456 128.011 99.9728 128.51 99.8064C129.081 99.7049 129.659 99.6524 130.238 99.6496C131.167 99.6361 132.093 99.5441 133.006 99.3744C133.646 99.1856 135.435 98.568 138.104 96.888C140.222 95.5536 142.219 94.2384 142.546 94.0272L144.283 88.9712C144.297 88.9322 144.326 88.9001 144.362 88.8816C144.399 88.8631 144.442 88.8597 144.482 88.872L150.802 90.9136C150.824 90.9201 150.844 90.9315 150.862 90.947C150.879 90.9626 150.892 90.9818 150.901 91.0032C150.91 91.0238 150.915 91.0461 150.915 91.0688C150.915 91.0914 150.91 91.1138 150.901 91.1344C150.21 92.536 146.741 99.5344 146.613 99.7104C146.485 99.8864 146.126 100.03 144.862 100.565L143.611 101.099C141.774 101.893 134.331 103.058 133.563 103.173C133.019 103.71 130.779 105.906 130.158 105.906ZM124.92 103.211C125.355 103.57 129.589 105.586 130.165 105.586C130.485 105.586 132.062 104.226 133.365 102.91C133.39 102.887 133.421 102.872 133.454 102.866C133.534 102.866 141.614 101.608 143.474 100.805L144.728 100.267C145.289 100.065 145.831 99.8129 146.347 99.5152C146.485 99.3008 149.333 93.5664 150.523 91.16L144.53 89.224L142.84 94.1808C142.828 94.2147 142.806 94.2439 142.776 94.264C142.754 94.264 140.59 95.7072 138.296 97.144C135.691 98.7856 133.931 99.4288 133.118 99.6688C132.182 99.8498 131.231 99.9461 130.277 99.9568C129.726 99.9644 129.176 100.011 128.632 100.098C128.075 100.28 125.102 102.712 124.92 103.211Z" fill="#263238"/>
<path d="M134.107 99.2976C134.067 99.2965 134.029 99.2818 133.998 99.256C133.983 99.2412 133.972 99.2235 133.963 99.204C133.955 99.1845 133.951 99.1636 133.951 99.1424C133.951 99.1213 133.955 99.1004 133.963 99.0809C133.972 99.0614 133.983 99.0437 133.998 99.0288C134.098 98.9168 136.485 96.2736 138.597 95.2176C140.398 94.3184 141.666 94.5264 142.363 95.8416C142.434 95.9626 142.477 96.0974 142.489 96.2367C142.502 96.376 142.484 96.5164 142.437 96.648C142.226 97.2336 141.477 97.5504 141.451 97.5632L140.376 98.0144C140.337 98.0307 140.293 98.0311 140.254 98.0156C140.214 98 140.182 97.9698 140.165 97.9312C140.15 97.8916 140.15 97.8477 140.166 97.8085C140.182 97.7692 140.213 97.7376 140.251 97.72L141.326 97.2688C141.326 97.2688 141.966 96.9904 142.136 96.5392C142.168 96.4495 142.179 96.3538 142.169 96.2591C142.159 96.1645 142.128 96.0732 142.078 95.992C141.691 95.2592 140.923 94.4144 138.741 95.5056C136.683 96.5328 134.261 99.2176 134.235 99.2432C134.219 99.2612 134.2 99.2753 134.177 99.2847C134.155 99.2942 134.131 99.2985 134.107 99.2976Z" fill="#263238"/>
<path d="M139.269 98.6225C139.195 98.6224 139.124 98.5968 139.066 98.5501C139.009 98.5034 138.97 98.4384 138.956 98.3662C138.941 98.294 138.952 98.2189 138.986 98.1536C139.02 98.0884 139.076 98.037 139.144 98.0081L140.181 97.5729C140.219 97.5566 140.261 97.5482 140.303 97.5481C140.345 97.548 140.387 97.5562 140.426 97.5722C140.465 97.5883 140.5 97.6119 140.53 97.6417C140.56 97.6714 140.584 97.7068 140.6 97.7457C140.632 97.8238 140.631 97.9114 140.599 97.9893C140.567 98.0672 140.505 98.1291 140.427 98.1617L139.393 98.6001C139.354 98.6153 139.311 98.6229 139.269 98.6225Z" fill="#263238"/>
<path d="M135.266 98.8688L136.363 100.494L139.64 99.1952C139.357 98.7161 139.044 98.2545 138.706 97.8128L138.462 97.5696L135.266 98.8688Z" fill="white"/>
<path d="M136.363 100.655C136.337 100.654 136.311 100.648 136.288 100.636C136.264 100.623 136.244 100.606 136.229 100.584L135.134 98.9585C135.121 98.9394 135.111 98.9173 135.108 98.894C135.104 98.8707 135.105 98.8468 135.112 98.8242C135.119 98.8013 135.131 98.7803 135.147 98.7626C135.163 98.7449 135.183 98.731 135.205 98.7217L138.405 97.4226C138.434 97.4104 138.466 97.4073 138.497 97.4136C138.528 97.4198 138.556 97.4352 138.578 97.4577L138.824 97.7009C139.175 98.1496 139.496 98.621 139.784 99.1121C139.796 99.1322 139.804 99.1545 139.806 99.1776C139.809 99.2008 139.807 99.2243 139.8 99.2465C139.792 99.2682 139.78 99.2879 139.764 99.3045C139.748 99.321 139.729 99.334 139.707 99.3425L136.414 100.645C136.398 100.651 136.381 100.654 136.363 100.655ZM135.509 98.9457L136.424 100.299L139.416 99.1153C139.172 98.7024 138.902 98.3058 138.606 97.9281L138.437 97.7585L135.509 98.9457Z" fill="#263238"/>
<path d="M125.192 103.16C125.192 103.16 124.587 103.851 124.673 103.979C124.76 104.107 125.019 104.671 125.409 104.619C125.8 104.568 127.365 103.384 127.365 102.962C127.347 102.762 127.251 102.578 127.099 102.448C126.946 102.318 126.749 102.253 126.549 102.267C126.027 102.444 125.56 102.751 125.192 103.16Z" fill="#D1D1D1"/>
<path d="M125.365 104.786C124.962 104.786 124.725 104.347 124.581 104.146L124.543 104.075C124.491 104.002 124.389 103.845 125.064 103.07C125.456 102.631 125.959 102.305 126.52 102.126C126.643 102.112 126.767 102.123 126.884 102.16C127.002 102.197 127.11 102.259 127.202 102.341C127.299 102.417 127.378 102.514 127.433 102.625C127.489 102.736 127.519 102.857 127.522 102.981C127.522 103.534 125.848 104.75 125.423 104.795L125.365 104.786ZM124.831 103.925L124.859 103.97C124.949 104.126 125.154 104.488 125.391 104.462C125.733 104.424 127.205 103.275 127.205 102.965C127.201 102.889 127.18 102.814 127.144 102.747C127.108 102.679 127.058 102.621 126.997 102.574C126.941 102.523 126.874 102.483 126.802 102.458C126.73 102.433 126.654 102.422 126.578 102.427C126.102 102.593 125.674 102.872 125.33 103.24L125.314 103.259C125.127 103.461 124.965 103.684 124.831 103.925Z" fill="#263238"/>
<path d="M125.944 104.597C126.183 104.873 126.458 105.116 126.76 105.32C127.032 105.442 128.149 104.414 128.392 104.021C128.438 103.959 128.467 103.887 128.478 103.811C128.488 103.735 128.48 103.657 128.453 103.585C128.426 103.514 128.381 103.45 128.323 103.399C128.265 103.349 128.195 103.314 128.12 103.298C127.871 103.25 127.615 103.25 127.365 103.298L125.944 104.597Z" fill="#D1D1D1"/>
<path d="M126.798 105.486C126.763 105.487 126.728 105.481 126.696 105.467C126.371 105.254 126.078 104.997 125.825 104.702C125.81 104.688 125.799 104.67 125.791 104.651C125.782 104.632 125.778 104.611 125.778 104.59C125.778 104.57 125.782 104.549 125.791 104.53C125.799 104.511 125.81 104.493 125.825 104.478L127.243 103.179C127.265 103.159 127.293 103.146 127.323 103.141C127.599 103.082 127.885 103.082 128.161 103.141C128.261 103.173 128.352 103.227 128.428 103.298C128.505 103.369 128.564 103.457 128.603 103.554C128.63 103.646 128.636 103.743 128.621 103.837C128.605 103.932 128.568 104.022 128.513 104.101C128.337 104.418 127.291 105.486 126.798 105.486ZM126.158 104.606C126.346 104.823 126.561 105.014 126.798 105.176C126.987 105.176 127.979 104.344 128.229 103.938C128.259 103.899 128.28 103.855 128.291 103.807C128.301 103.759 128.301 103.71 128.289 103.662C128.264 103.611 128.229 103.566 128.185 103.529C128.142 103.492 128.091 103.464 128.037 103.448C127.831 103.408 127.619 103.408 127.413 103.448L126.158 104.606Z" fill="#263238"/>
<path d="M127.183 105.352C127.183 105.352 128.088 105.742 128.392 105.714C128.696 105.685 129.599 104.597 129.509 104.203C129.419 103.81 128.603 103.781 128.603 103.781L127.183 105.352Z" fill="#D1D1D1"/>
<path d="M128.36 105.874C127.931 105.807 127.513 105.681 127.118 105.499C127.096 105.488 127.076 105.471 127.06 105.452C127.044 105.432 127.032 105.409 127.026 105.384C127.021 105.359 127.022 105.333 127.028 105.309C127.035 105.285 127.047 105.262 127.064 105.243L128.485 103.672C128.501 103.655 128.52 103.642 128.542 103.633C128.563 103.624 128.586 103.62 128.61 103.621C128.706 103.621 129.55 103.669 129.666 104.168C129.726 104.427 129.509 104.808 129.317 105.07C129.125 105.333 128.677 105.845 128.408 105.874H128.36ZM127.454 105.291C127.747 105.423 128.058 105.511 128.376 105.554C128.676 105.367 128.928 105.111 129.109 104.808C129.33 104.488 129.368 104.296 129.352 104.238C129.314 104.069 128.946 103.97 128.67 103.944L127.454 105.291Z" fill="#263238"/>
<path d="M128.76 105.742C128.76 105.742 129.4 106.136 129.697 105.986C129.995 105.835 130.542 104.958 130.421 104.626C130.299 104.293 129.515 104.203 129.515 104.203L128.76 105.742Z" fill="#D1D1D1"/>
<path d="M129.521 106.181C129.218 106.149 128.926 106.046 128.67 105.88C128.636 105.859 128.612 105.826 128.6 105.788C128.589 105.749 128.592 105.708 128.609 105.672L129.365 104.133C129.38 104.103 129.403 104.079 129.433 104.063C129.462 104.047 129.495 104.04 129.528 104.043C129.675 104.062 130.417 104.168 130.565 104.571C130.712 104.974 130.126 105.947 129.761 106.13C129.686 106.165 129.604 106.182 129.521 106.181ZM128.965 105.678C129.192 105.797 129.493 105.906 129.605 105.842C129.861 105.714 130.337 104.917 130.245 104.68C130.193 104.539 129.851 104.427 129.582 104.379L128.965 105.678Z" fill="#263238"/>
<path d="M132.015 99.7873C132.015 99.7873 129.295 99.3201 128.472 99.3201C127.65 99.3201 126.703 99.2785 126.616 99.5793C126.53 99.8801 125.711 101.349 125.106 101.867C124.501 102.386 124.2 103.422 124.76 103.291C125.32 103.16 126.402 102.776 126.402 102.776L128.216 101.307C128.216 101.307 129.423 102.04 129.727 102.04" fill="#D1D1D1"/>
<path d="M124.67 103.454C124.604 103.458 124.539 103.442 124.482 103.408C124.425 103.375 124.379 103.325 124.35 103.266C124.177 102.923 124.497 102.165 124.99 101.736C125.556 101.253 126.369 99.816 126.449 99.5248C126.555 99.16 127.179 99.1408 128.187 99.1504H128.459C129.284 99.1504 131.918 99.608 132.027 99.6272C132.048 99.6307 132.068 99.6382 132.086 99.6495C132.103 99.6607 132.119 99.6754 132.131 99.6926C132.143 99.7099 132.152 99.7294 132.157 99.75C132.161 99.7706 132.162 99.792 132.158 99.8128C132.15 99.8545 132.127 99.8915 132.092 99.916C132.057 99.9405 132.014 99.9505 131.972 99.944C131.947 99.944 129.259 99.4704 128.452 99.4704H128.177C127.732 99.4704 126.804 99.4704 126.75 99.6144C126.657 99.9344 125.822 101.438 125.192 101.979C124.753 102.357 124.552 102.968 124.619 103.122C124.619 103.141 124.67 103.122 124.705 103.122C125.204 103.006 126.136 102.677 126.305 102.616L128.097 101.166C128.124 101.148 128.156 101.138 128.188 101.138C128.221 101.138 128.253 101.148 128.28 101.166C128.727 101.465 129.211 101.704 129.72 101.88C129.762 101.881 129.802 101.898 129.832 101.928C129.862 101.958 129.879 101.998 129.88 102.04C129.88 102.082 129.863 102.123 129.833 102.153C129.803 102.183 129.762 102.2 129.72 102.2C129.425 102.2 128.59 101.723 128.222 101.502L126.494 102.898C126.481 102.91 126.466 102.92 126.449 102.926C126.404 102.942 125.355 103.32 124.788 103.448C124.749 103.455 124.71 103.458 124.67 103.454Z" fill="#263238"/>
<path d="M195.074 105.109C195.074 105.109 194.754 103.573 194.674 103.189C194.594 102.805 194.78 102.68 194.322 102.171C193.545 101.49 192.656 100.949 191.695 100.571C190.959 100.399 190.21 100.292 189.455 100.251C189.112 100.251 187.404 99.3872 187.404 99.3872L183.381 96.5072C182.216 94.0016 180.152 89.0608 180.152 89.0608L173.896 90.4784C174.458 91.9824 175.029 93.4843 175.612 94.984C176.764 97.9472 177.948 102.05 181.82 102.248L185.58 102.443L186.613 103.96C187.246 104.367 187.902 104.736 188.578 105.067C189.048 105.234 189.877 106.011 189.877 106.011C190.043 106.043 190.215 106.011 190.358 105.921C190.501 105.83 190.603 105.689 190.645 105.525C190.77 104.939 190.725 104.818 190.437 104.587C190.149 104.357 189.013 103.483 189.013 103.483L190.005 103.048C190.005 103.048 190.984 104.046 191.109 104.203C191.234 104.36 191.573 106.2 191.868 106.635C192.162 107.07 192.77 106.507 192.77 106.507C192.77 106.507 193.288 106.994 193.544 106.763C193.8 106.533 193.9 105.886 193.893 105.685C193.887 105.483 193.781 104.642 193.781 104.642C193.781 104.642 194.21 106.181 194.536 106.331C194.863 106.482 195.384 106.424 195.394 106.082C195.355 105.739 195.246 105.408 195.074 105.109Z" fill="#D1D1D1"/>
<path d="M193.4 106.949C193.175 106.924 192.962 106.83 192.792 106.68C192.606 106.837 192.37 106.922 192.126 106.92C192.052 106.911 191.98 106.886 191.917 106.846C191.853 106.806 191.799 106.753 191.758 106.69C191.51 106.158 191.329 105.598 191.218 105.022C191.16 104.764 191.088 104.51 191 104.261C190.914 104.152 190.302 103.522 189.992 103.205L189.352 103.486C189.698 103.749 190.354 104.258 190.565 104.427C190.917 104.709 190.962 104.894 190.83 105.522C190.808 105.625 190.765 105.723 190.705 105.81C190.645 105.897 190.567 105.971 190.478 106.029C190.389 106.086 190.289 106.125 190.185 106.143C190.081 106.161 189.974 106.159 189.87 106.136C189.839 106.131 189.81 106.116 189.787 106.094C189.418 105.733 188.999 105.426 188.542 105.182C187.854 104.849 187.187 104.474 186.546 104.059C186.526 104.049 186.509 104.033 186.498 104.014L185.509 102.562L181.832 102.373C178.194 102.187 176.859 98.6512 175.787 95.8096C175.685 95.5344 175.582 95.2656 175.467 95.0064C174.882 93.496 174.302 91.9792 173.752 90.4976C173.744 90.4762 173.741 90.4534 173.743 90.4307C173.744 90.408 173.751 90.3859 173.762 90.3659C173.773 90.3459 173.788 90.3284 173.806 90.3147C173.824 90.301 173.845 90.2914 173.867 90.2864L180.123 88.8688C180.16 88.8598 180.198 88.8643 180.232 88.8813C180.265 88.8983 180.291 88.9268 180.306 88.9616C180.325 89.0128 182.36 93.88 183.506 96.3664L187.493 99.2464C188.122 99.5825 188.779 99.862 189.458 100.082C190.222 100.128 190.98 100.242 191.723 100.424C192.714 100.812 193.628 101.372 194.424 102.078C194.545 102.183 194.642 102.314 194.706 102.46C194.771 102.607 194.802 102.766 194.798 102.926C194.796 103.008 194.802 103.089 194.814 103.17C194.882 103.518 195.17 104.862 195.211 105.061C195.395 105.366 195.51 105.708 195.55 106.062C195.549 106.138 195.527 106.213 195.489 106.278C195.45 106.344 195.395 106.398 195.33 106.437C195.196 106.504 195.048 106.539 194.898 106.539C194.748 106.539 194.6 106.504 194.466 106.437C194.267 106.283 194.119 106.074 194.04 105.835C194.017 106.204 193.879 106.556 193.646 106.843C193.579 106.906 193.492 106.944 193.4 106.949ZM192.792 106.309C192.833 106.308 192.873 106.323 192.904 106.35C193.074 106.51 193.371 106.67 193.458 106.606C193.651 106.324 193.755 105.989 193.755 105.646C193.755 105.493 193.678 104.907 193.643 104.619C193.635 104.577 193.643 104.533 193.667 104.497C193.691 104.461 193.729 104.436 193.771 104.427C193.814 104.419 193.858 104.427 193.894 104.451C193.93 104.475 193.955 104.513 193.963 104.555C194.184 105.349 194.491 106.075 194.632 106.139C194.72 106.18 194.815 106.201 194.912 106.201C195.009 106.201 195.104 106.18 195.192 106.139C195.213 106.129 195.231 106.113 195.244 106.094C195.256 106.074 195.263 106.051 195.262 106.027C195.213 105.723 195.105 105.432 194.942 105.17C194.934 105.156 194.928 105.141 194.926 105.125C194.91 105.064 194.606 103.582 194.523 103.205C194.506 103.104 194.498 103.003 194.501 102.901C194.501 102.712 194.501 102.581 194.206 102.261C193.449 101.596 192.583 101.067 191.646 100.696C190.93 100.525 190.199 100.418 189.464 100.376C189.106 100.376 187.634 99.64 187.346 99.4928L183.301 96.584C183.279 96.5684 183.261 96.5475 183.25 96.5232C182.197 94.264 180.398 89.976 180.069 89.1952L174.123 90.5424C174.654 91.9696 175.208 93.4224 175.774 94.8752L176.094 95.6816C177.186 98.5776 178.427 101.864 181.854 102.037L185.611 102.232C185.636 102.233 185.66 102.241 185.682 102.253C185.703 102.265 185.722 102.282 185.736 102.302L186.75 103.79C187.368 104.187 188.009 104.546 188.67 104.866C189.153 105.113 189.596 105.43 189.986 105.806C190.106 105.827 190.229 105.8 190.33 105.732C190.431 105.664 190.503 105.56 190.53 105.442C190.645 104.878 190.594 104.837 190.373 104.661C190.085 104.427 188.952 103.557 188.952 103.557C188.93 103.54 188.913 103.518 188.902 103.493C188.892 103.468 188.888 103.44 188.891 103.413C188.895 103.385 188.905 103.358 188.922 103.336C188.939 103.313 188.961 103.296 188.987 103.285L189.979 102.853C190.009 102.84 190.042 102.836 190.074 102.841C190.106 102.847 190.135 102.862 190.158 102.885C190.258 102.987 191.144 103.893 191.272 104.05C191.403 104.328 191.494 104.623 191.544 104.926C191.652 105.465 191.818 105.991 192.04 106.494C192.055 106.519 192.075 106.541 192.1 106.557C192.124 106.573 192.152 106.583 192.181 106.587C192.36 106.61 192.622 106.408 192.699 106.338C192.724 106.322 192.753 106.313 192.782 106.312L192.792 106.309Z" fill="#263238"/>
<path d="M192.622 106.479C192.622 106.479 192.542 104.383 192.539 104.267C192.442 103.824 192.293 103.395 192.094 102.987C191.786 102.504 191.441 102.044 191.064 101.611C191.037 101.579 191.023 101.537 191.026 101.494C191.029 101.452 191.048 101.412 191.08 101.384C191.096 101.37 191.114 101.36 191.134 101.353C191.154 101.346 191.174 101.343 191.195 101.345C191.216 101.346 191.237 101.352 191.255 101.362C191.274 101.371 191.29 101.384 191.304 101.4C191.7 101.85 192.06 102.332 192.379 102.84C192.605 103.291 192.767 103.771 192.859 104.267C192.859 104.379 192.942 106.475 192.942 106.475L192.622 106.479Z" fill="#263238"/>
<path d="M193.793 104.76C193.752 104.761 193.712 104.746 193.682 104.717C193.653 104.689 193.635 104.651 193.633 104.61C193.598 103.938 193.544 103.182 193.508 103.077C193.473 102.971 192.795 102.158 192.19 101.445C192.177 101.428 192.166 101.409 192.16 101.389C192.154 101.369 192.152 101.348 192.154 101.327C192.156 101.305 192.162 101.285 192.172 101.266C192.182 101.248 192.196 101.231 192.212 101.218C192.229 101.204 192.248 101.194 192.268 101.188C192.288 101.182 192.309 101.18 192.331 101.182C192.352 101.184 192.372 101.19 192.391 101.2C192.41 101.21 192.426 101.224 192.44 101.24C192.928 101.792 193.386 102.37 193.812 102.971C193.892 103.51 193.939 104.053 193.953 104.597C193.954 104.618 193.952 104.638 193.945 104.658C193.938 104.678 193.927 104.696 193.913 104.712C193.899 104.727 193.882 104.74 193.863 104.748C193.844 104.757 193.824 104.762 193.803 104.763L193.793 104.76Z" fill="#263238"/>
<path d="M195.579 105.509H195.563C195.493 105.505 195.426 105.481 195.369 105.44C195.313 105.4 195.269 105.343 195.243 105.278C195.15 105.091 195.043 104.912 194.923 104.741C194.912 104.725 194.905 104.708 194.901 104.69L194.481 102.818C194.474 102.783 194.477 102.748 194.492 102.716C194.506 102.684 194.531 102.658 194.561 102.642C194.593 102.626 194.628 102.621 194.663 102.627C194.697 102.632 194.729 102.649 194.753 102.674C195.04 102.958 195.3 103.268 195.528 103.602C195.528 103.621 195.55 103.656 195.573 103.707C195.947 104.635 196.056 105.051 195.969 105.243C195.937 105.32 195.882 105.386 195.813 105.433C195.744 105.48 195.663 105.506 195.579 105.509ZM195.211 104.59C195.332 104.774 195.439 104.966 195.531 105.166C195.535 105.174 195.54 105.181 195.548 105.185C195.556 105.189 195.564 105.19 195.573 105.189C195.596 105.187 195.619 105.179 195.638 105.165C195.657 105.151 195.671 105.131 195.678 105.109C195.678 105.058 195.678 104.824 195.275 103.829L195.227 103.71C195.136 103.58 195.035 103.456 194.926 103.339L195.211 104.59Z" fill="#263238"/>
<path d="M178.837 98.0785C178.803 98.0781 178.77 98.0669 178.743 98.0466C178.716 98.0263 178.696 97.9979 178.686 97.9656C178.676 97.9332 178.676 97.8985 178.687 97.8664C178.698 97.8344 178.719 97.8067 178.747 97.7873C178.83 97.7329 180.75 96.4785 182.542 96.5265C182.584 96.5282 182.624 96.5462 182.652 96.5767C182.681 96.6072 182.697 96.6478 182.696 96.6897C182.694 96.7319 182.676 96.7717 182.646 96.801C182.616 96.8302 182.575 96.8465 182.533 96.8465H182.43C180.76 96.8465 178.946 98.0433 178.91 98.0561C178.888 98.0697 178.863 98.0774 178.837 98.0785Z" fill="#263238"/>
<path d="M141.806 149.56L140.049 151.656L135.988 154.478C135.4 154.891 135.636 155.893 135.755 156.363C135.873 156.834 140.168 158.008 143.048 158.008C145.928 158.008 147.873 156.597 148.696 156.069C149.518 155.541 150.696 155.429 151.46 154.789C152.225 154.149 151.854 151.589 151.854 151.589C151.854 151.589 149.992 147.967 147.873 146.2C145.755 144.434 144.753 145.202 143.393 146.261C142.033 147.32 141.806 149.56 141.806 149.56Z" fill="white"/>
<path d="M143.048 158.168C140.43 158.168 135.765 157.061 135.598 156.402C135.483 155.931 135.208 154.834 135.899 154.347L139.941 151.538L141.653 149.496C141.698 149.144 142.008 147.131 143.304 146.117C144.67 145.048 145.749 144.197 147.976 146.062C150.094 147.826 151.922 151.349 151.998 151.502C152 151.518 152 151.534 151.998 151.55C152.037 151.822 152.357 154.216 151.55 154.898C151.075 155.251 150.539 155.516 149.97 155.678C149.55 155.809 149.147 155.986 148.766 156.206L148.584 156.325C146.968 157.486 145.037 158.129 143.048 158.168ZM145.64 145.288C144.882 145.288 144.264 145.771 143.499 146.37C142.219 147.374 141.966 149.57 141.966 149.57C141.963 149.602 141.95 149.632 141.928 149.656L140.171 151.749L140.139 151.778L136.082 154.6C135.57 154.958 135.816 155.944 135.909 156.315C136.126 156.677 140.126 157.838 143.048 157.838C145.685 157.838 147.528 156.629 148.424 156.046L148.61 155.925C149.013 155.689 149.442 155.501 149.89 155.365C150.421 155.212 150.921 154.968 151.368 154.642C151.931 154.165 151.81 152.318 151.71 151.611C151.544 151.291 149.762 147.947 147.781 146.299C146.888 145.573 146.222 145.288 145.64 145.288Z" fill="#263238"/>
<path d="M148.696 156.069C149.522 155.538 150.696 155.429 151.461 154.789C151.781 154.523 151.899 153.931 151.931 153.33C150.863 153.574 149.848 154.007 148.933 154.61C147.227 155.787 146.053 156.728 142.533 156.728C140.219 156.674 137.938 156.174 135.813 155.256H135.611C135.603 155.63 135.651 156.004 135.755 156.363C135.87 156.834 140.168 158.008 143.048 158.008C145.928 158.008 147.874 156.6 148.696 156.069Z" fill="white"/>
<path d="M143.048 158.168C140.43 158.168 135.765 157.061 135.598 156.402C135.493 156.026 135.443 155.637 135.451 155.246C135.454 155.208 135.471 155.171 135.498 155.143C135.526 155.116 135.562 155.099 135.601 155.096H135.803C135.83 155.095 135.856 155.101 135.88 155.112C137.981 156.011 140.235 156.501 142.52 156.555C145.829 156.555 147.048 155.707 148.6 154.635L148.846 154.466C149.779 153.85 150.814 153.407 151.902 153.157C151.926 153.151 151.951 153.152 151.975 153.158C151.999 153.164 152.021 153.176 152.04 153.192C152.06 153.207 152.075 153.227 152.085 153.25C152.095 153.273 152.099 153.298 152.097 153.323C152.053 154.11 151.877 154.638 151.573 154.894C151.097 155.248 150.562 155.513 149.992 155.675C149.572 155.806 149.169 155.983 148.789 156.203L148.606 156.322C146.984 157.488 145.045 158.132 143.048 158.168ZM135.768 155.406C135.778 155.717 135.826 156.025 135.909 156.325C136.126 156.686 140.126 157.848 143.048 157.848C145.685 157.848 147.528 156.638 148.424 156.056L148.609 155.934C149.013 155.698 149.442 155.51 149.889 155.374C150.421 155.222 150.921 154.977 151.368 154.651C151.573 154.478 151.71 154.088 151.765 153.522C150.792 153.766 149.868 154.174 149.032 154.728L148.785 154.898C147.185 156.002 145.937 156.875 142.529 156.875C140.213 156.816 137.93 156.318 135.8 155.406H135.768Z" fill="#263238"/>
<path d="M183.212 149.56L184.968 151.656L189.029 154.478C189.615 154.891 189.381 155.893 189.263 156.363C189.144 156.834 184.85 158.008 181.967 158.008C179.084 158.008 177.144 156.597 176.322 156.069C175.5 155.541 174.319 155.429 173.554 154.789C172.789 154.149 173.16 151.589 173.16 151.589C173.16 151.589 175.026 147.967 177.144 146.2C179.263 144.434 180.261 145.202 181.624 146.261C182.988 147.32 183.212 149.56 183.212 149.56Z" fill="white"/>
<path d="M181.966 158.168C179.972 158.131 178.036 157.487 176.417 156.322L176.232 156.203C175.853 155.983 175.45 155.806 175.032 155.675C174.462 155.513 173.926 155.249 173.451 154.894C172.641 154.213 172.965 151.819 173.003 151.547C173.005 151.53 173.011 151.514 173.019 151.499C173.096 151.349 174.923 147.826 177.041 146.059C179.281 144.2 180.347 145.045 181.713 146.114C182.993 147.128 183.313 149.141 183.365 149.493L185.077 151.534L189.118 154.36C189.809 154.846 189.534 155.96 189.419 156.414C189.24 157.061 184.587 158.168 181.966 158.168ZM173.326 151.621C173.227 152.328 173.105 154.181 173.669 154.651C174.115 154.977 174.616 155.222 175.147 155.374C175.594 155.51 176.024 155.698 176.427 155.934L176.613 156.056C177.499 156.638 179.349 157.848 181.985 157.848C184.91 157.848 188.91 156.686 189.131 156.312C189.221 155.954 189.451 154.968 188.955 154.61L184.878 151.8L184.846 151.771L183.086 149.678C183.067 149.653 183.055 149.624 183.051 149.592C183.051 149.57 182.798 147.387 181.515 146.392C180.168 145.336 179.275 144.638 177.246 146.331C175.265 147.96 173.48 151.307 173.317 151.621H173.326Z" fill="#263238"/>
<path d="M176.321 156.069C175.496 155.538 174.318 155.429 173.553 154.789C173.233 154.523 173.118 153.931 173.083 153.33C174.152 153.574 175.168 154.007 176.085 154.61C177.79 155.787 178.965 156.728 182.485 156.728C184.798 156.674 187.08 156.174 189.205 155.256H189.403C189.412 155.63 189.365 156.003 189.262 156.363C189.144 156.834 184.849 158.008 181.966 158.008C179.083 158.008 177.144 156.6 176.321 156.069Z" fill="white"/>
<path d="M181.966 158.168C179.972 158.131 178.036 157.487 176.417 156.322L176.232 156.203C175.853 155.983 175.45 155.806 175.032 155.675C174.462 155.513 173.926 155.249 173.451 154.894C173.131 154.638 172.971 154.107 172.923 153.323C172.922 153.298 172.927 153.274 172.937 153.251C172.947 153.228 172.962 153.208 172.981 153.192C173 153.176 173.023 153.165 173.047 153.159C173.071 153.153 173.097 153.152 173.121 153.157C174.209 153.407 175.243 153.85 176.174 154.466L176.421 154.635C177.969 155.707 179.189 156.555 182.501 156.555C184.786 156.496 187.04 156.002 189.141 155.099C189.164 155.087 189.191 155.082 189.217 155.083H189.419C189.458 155.086 189.494 155.103 189.521 155.131C189.548 155.159 189.564 155.195 189.566 155.234C189.576 155.624 189.528 156.013 189.422 156.389C189.24 157.061 184.587 158.168 181.966 158.168ZM173.262 153.522C173.317 154.088 173.451 154.482 173.659 154.651C174.106 154.977 174.606 155.222 175.137 155.374C175.584 155.51 176.014 155.698 176.417 155.934L176.603 156.056C177.489 156.638 179.339 157.848 181.976 157.848C184.901 157.848 188.901 156.686 189.121 156.312C189.201 156.016 189.247 155.713 189.259 155.406C187.127 156.318 184.841 156.817 182.523 156.875C179.115 156.875 177.857 156.002 176.264 154.898L176.021 154.728C175.177 154.171 174.244 153.763 173.262 153.522Z" fill="#263238"/>
<path d="M184.254 126.568C184.254 126.568 186.907 114.68 186.68 113.464C186.453 112.248 185.72 109.605 182.657 107.435C179.595 105.266 177.889 105.071 177.889 105.071C174.648 103.026 162.481 103.736 162.481 103.736C162.481 103.736 150.321 103.026 147.07 105.071C147.07 105.071 145.355 105.266 142.302 107.435C139.249 109.605 138.523 112.258 138.283 113.464C138.043 114.671 140.693 126.568 140.693 126.568L142.613 142.085V144.738L141.24 146.907L141.803 149.56C141.803 149.56 143.403 147.231 144.779 146.68C146.155 146.13 147.269 146.68 148.155 147.64C149.041 148.6 151.851 151.579 151.851 151.579C151.851 151.579 152.171 150.373 152.334 149.407C152.497 148.44 152.174 147.237 152.014 146.271C151.823 145.18 151.688 144.079 151.611 142.975C151.611 142.415 151.851 127.138 151.851 125.375C151.851 123.611 152.491 120.232 152.657 119.186C152.824 118.139 152.254 116.626 152.254 116.626C152.254 116.626 161.419 115.499 161.739 115.579C161.979 115.626 162.225 115.626 162.465 115.579C162.704 115.626 162.95 115.626 163.189 115.579C163.509 115.499 172.673 116.626 172.673 116.626C172.673 116.626 172.11 118.152 172.273 119.186C172.437 120.219 173.077 123.608 173.077 125.375C173.077 127.141 173.317 142.421 173.317 142.975C173.24 144.077 173.107 145.175 172.92 146.264C172.757 147.224 172.437 148.437 172.6 149.4C172.763 150.363 173.083 151.573 173.083 151.573C173.083 151.573 175.896 148.597 176.779 147.634C177.662 146.671 178.792 146.104 180.158 146.674C181.525 147.243 183.131 149.554 183.131 149.554L183.694 146.901L182.328 144.731V142.079L184.254 126.568Z" fill="#263238"/>
<path d="M173.08 151.733H173.041C173.013 151.727 172.987 151.713 172.967 151.692C172.946 151.672 172.932 151.646 172.926 151.618C172.926 151.618 172.606 150.395 172.44 149.432C172.308 148.642 172.488 147.701 172.644 146.872C172.686 146.654 172.728 146.446 172.76 146.232C172.948 145.149 173.081 144.058 173.16 142.962C173.16 142.76 173.128 140.632 173.089 137.941C173.016 133.106 172.92 126.488 172.92 125.355C172.92 123.938 172.5 121.48 172.254 120.011C172.196 119.672 172.148 119.39 172.116 119.192C171.985 118.328 172.315 117.179 172.462 116.728C168.856 116.286 163.55 115.666 163.22 115.704C162.972 115.753 162.717 115.753 162.468 115.704C162.216 115.753 161.956 115.753 161.704 115.704C161.384 115.662 156.081 116.286 152.472 116.728C152.619 117.179 152.948 118.328 152.817 119.192C152.785 119.39 152.737 119.672 152.68 120.014C152.433 121.48 152.014 123.938 152.014 125.355C152.014 126.488 151.918 133.106 151.844 137.941C151.806 140.632 151.774 142.76 151.774 142.962C151.852 144.058 151.986 145.149 152.174 146.232C152.206 146.434 152.248 146.642 152.289 146.872C152.446 147.701 152.628 148.642 152.494 149.432C152.334 150.392 152.014 151.608 152.011 151.618C152.004 151.645 151.989 151.671 151.969 151.691C151.949 151.711 151.923 151.726 151.896 151.733C151.868 151.741 151.839 151.74 151.811 151.732C151.783 151.725 151.758 151.709 151.739 151.688C151.71 151.659 148.913 148.702 148.04 147.746C147.051 146.667 145.972 146.357 144.84 146.821C143.531 147.358 141.96 149.637 141.934 149.659C141.916 149.685 141.892 149.705 141.862 149.717C141.833 149.729 141.802 149.733 141.771 149.726C141.74 149.719 141.713 149.704 141.69 149.682C141.668 149.66 141.653 149.632 141.646 149.602L141.083 146.949C141.076 146.908 141.083 146.866 141.105 146.83L142.446 144.699V142.091L140.526 126.594C140.417 126.123 137.87 114.664 138.116 113.442C138.619 110.943 140.086 108.744 142.2 107.32C145.044 105.301 146.731 104.974 147 104.933C150.286 102.907 161.976 103.563 162.472 103.592C162.952 103.563 174.632 102.904 177.931 104.933C178.206 104.974 179.889 105.301 182.731 107.32C184.846 108.747 186.315 110.95 186.817 113.451C187.06 114.67 184.536 126.027 184.404 126.613L182.484 142.12V144.709L183.825 146.84C183.837 146.857 183.845 146.877 183.848 146.897C183.852 146.917 183.852 146.938 183.848 146.958L183.284 149.611C183.278 149.642 183.263 149.67 183.241 149.692C183.219 149.715 183.19 149.73 183.16 149.736C183.129 149.742 183.097 149.738 183.068 149.726C183.039 149.715 183.014 149.695 182.996 149.669C182.98 149.646 181.396 147.368 180.094 146.83C178.961 146.366 177.883 146.677 176.894 147.755C176.02 148.715 173.224 151.669 173.195 151.698C173.162 151.724 173.121 151.737 173.08 151.733ZM163.236 115.394C164.1 115.394 170.635 116.187 172.696 116.44C172.72 116.443 172.743 116.452 172.763 116.465C172.784 116.479 172.801 116.496 172.814 116.517C172.824 116.538 172.83 116.562 172.83 116.586C172.83 116.609 172.824 116.633 172.814 116.654C172.814 116.67 172.267 118.158 172.42 119.147C172.449 119.346 172.497 119.627 172.555 119.963C172.808 121.442 173.227 123.915 173.227 125.362C173.227 126.494 173.323 133.109 173.396 137.941C173.435 140.635 173.467 142.766 173.467 142.968C173.39 144.083 173.255 145.192 173.064 146.293C173.027 146.493 172.989 146.707 172.948 146.933C172.795 147.736 172.628 148.645 172.74 149.381C172.852 150.05 173.044 150.846 173.15 151.256C173.806 150.562 175.908 148.334 176.648 147.531C177.736 146.341 178.932 146.002 180.203 146.526C181.313 146.984 182.545 148.526 183.035 149.182L183.508 146.942L182.2 144.824C182.183 144.798 182.174 144.768 182.174 144.738V142.085L184.094 126.549C184.83 123.25 186.699 114.475 186.504 113.512C186.018 111.092 184.597 108.961 182.548 107.582C179.576 105.467 177.873 105.246 177.854 105.243C177.831 105.241 177.809 105.233 177.79 105.221C174.628 103.227 162.593 103.906 162.472 103.912C162.35 103.918 150.312 103.227 147.14 105.221C147.12 105.233 147.097 105.24 147.073 105.243C147.054 105.243 145.352 105.467 142.379 107.582C140.33 108.96 138.908 111.091 138.424 113.512C138.228 114.472 140.097 123.25 140.833 126.549L142.753 142.082V144.754C142.754 144.784 142.746 144.814 142.731 144.84L141.396 146.955L141.87 149.195C142.36 148.539 143.592 146.997 144.705 146.539C145.985 146.014 147.169 146.354 148.26 147.544C148.996 148.347 151.099 150.574 151.755 151.269C151.86 150.859 152.052 150.062 152.164 149.394C152.286 148.658 152.113 147.749 151.96 146.942C151.915 146.725 151.876 146.514 151.841 146.302C151.675 145.288 151.438 143.534 151.438 142.978C151.438 142.776 151.47 140.645 151.508 137.95C151.582 133.118 151.678 126.504 151.678 125.371C151.678 123.928 152.097 121.454 152.35 119.976C152.408 119.637 152.456 119.355 152.484 119.157C152.638 118.165 152.097 116.68 152.091 116.664C152.081 116.643 152.075 116.619 152.075 116.595C152.075 116.571 152.081 116.548 152.091 116.526C152.104 116.506 152.121 116.488 152.141 116.475C152.162 116.462 152.185 116.453 152.209 116.45C154.366 116.187 161.432 115.333 161.755 115.41C161.966 115.449 162.183 115.449 162.395 115.41H162.456C162.667 115.449 162.884 115.449 163.096 115.41L163.236 115.394Z" fill="#263238"/>
<path d="M152.036 116.063C152.005 116.063 151.974 116.054 151.948 116.037C151.922 116.02 151.901 115.995 151.889 115.967C151.889 115.944 150.792 113.512 149.243 112.527C149.224 112.516 149.207 112.501 149.194 112.484C149.181 112.467 149.172 112.447 149.167 112.426C149.162 112.405 149.161 112.383 149.164 112.361C149.168 112.34 149.176 112.319 149.188 112.301C149.199 112.283 149.215 112.267 149.233 112.255C149.251 112.243 149.271 112.234 149.292 112.23C149.314 112.226 149.336 112.227 149.357 112.231C149.378 112.236 149.398 112.245 149.416 112.258C151.048 113.295 152.136 115.736 152.18 115.839C152.189 115.858 152.195 115.878 152.195 115.899C152.196 115.92 152.193 115.941 152.185 115.961C152.178 115.981 152.166 115.999 152.152 116.014C152.137 116.029 152.12 116.041 152.1 116.05C152.08 116.058 152.058 116.063 152.036 116.063Z" fill="#787878"/>
<path d="M150.939 143.637C150.906 143.637 150.875 143.627 150.848 143.609C150.821 143.59 150.801 143.564 150.788 143.534C150.788 143.512 149.828 141.096 149.105 139.144C148.382 137.192 146.264 126.622 146.174 126.174C146.166 126.132 146.174 126.088 146.198 126.052C146.222 126.016 146.26 125.991 146.302 125.982C146.345 125.974 146.389 125.983 146.425 126.007C146.461 126.031 146.486 126.068 146.494 126.11C146.516 126.219 148.692 137.093 149.412 139.032C150.132 140.971 151.083 143.394 151.092 143.416C151.1 143.436 151.104 143.456 151.104 143.477C151.104 143.499 151.099 143.519 151.091 143.539C151.082 143.558 151.07 143.575 151.055 143.59C151.04 143.605 151.022 143.616 151.003 143.624C150.983 143.634 150.961 143.638 150.939 143.637Z" fill="#787878"/>
<path d="M143.26 144.075C143.23 144.076 143.201 144.068 143.176 144.053C143.14 144.03 143.115 143.995 143.104 143.954C143.094 143.912 143.101 143.869 143.122 143.832C143.122 143.816 144.14 142.155 144.421 141.163C144.434 141.123 144.461 141.089 144.498 141.069C144.535 141.049 144.579 141.043 144.62 141.054C144.64 141.06 144.659 141.07 144.676 141.083C144.692 141.096 144.706 141.112 144.716 141.131C144.726 141.149 144.733 141.169 144.735 141.19C144.737 141.211 144.735 141.233 144.728 141.253C144.434 142.286 143.448 143.928 143.397 143.998C143.382 144.022 143.362 144.041 143.338 144.054C143.314 144.068 143.287 144.075 143.26 144.075Z" fill="#787878"/>
<path d="M173.611 146.488C173.582 146.489 173.553 146.481 173.528 146.466C173.492 146.443 173.466 146.407 173.456 146.366C173.446 146.325 173.452 146.281 173.473 146.245C173.525 146.165 174.68 144.302 176.081 143.346C177.483 142.389 179.336 140.741 179.355 140.725C179.37 140.71 179.388 140.698 179.407 140.69C179.427 140.682 179.448 140.677 179.469 140.677C179.49 140.677 179.511 140.682 179.53 140.69C179.55 140.698 179.567 140.71 179.582 140.725C179.612 140.755 179.628 140.795 179.628 140.837C179.628 140.879 179.612 140.919 179.582 140.949C179.563 140.968 177.662 142.651 176.273 143.595C174.885 144.539 173.771 146.379 173.761 146.398C173.748 146.426 173.726 146.45 173.7 146.466C173.673 146.482 173.642 146.489 173.611 146.488Z" fill="#787878"/>
<path d="M174.782 122.645C174.755 122.645 174.727 122.638 174.702 122.626C174.666 122.604 174.639 122.568 174.628 122.527C174.617 122.486 174.622 122.442 174.642 122.405C176.587 119.022 179.064 110.885 179.09 110.811C179.102 110.771 179.129 110.736 179.166 110.716C179.204 110.695 179.247 110.691 179.288 110.702C179.309 110.708 179.328 110.718 179.344 110.732C179.361 110.745 179.375 110.762 179.385 110.78C179.395 110.799 179.401 110.82 179.403 110.841C179.405 110.862 179.403 110.884 179.397 110.904C179.371 110.984 176.882 119.15 174.917 122.565C174.903 122.589 174.884 122.608 174.86 122.622C174.837 122.636 174.81 122.644 174.782 122.645Z" fill="#787878"/>
<path d="M172.882 116.136C172.86 116.141 172.837 116.141 172.815 116.136C172.777 116.118 172.747 116.086 172.732 116.047C172.717 116.007 172.718 115.964 172.735 115.925C172.783 115.816 173.938 113.243 175.695 111.557C175.726 111.528 175.767 111.512 175.81 111.513C175.852 111.514 175.893 111.532 175.922 111.563C175.951 111.594 175.967 111.636 175.966 111.678C175.965 111.721 175.946 111.761 175.915 111.79C174.203 113.432 173.035 116.027 173.035 116.053C173.021 116.08 172.999 116.103 172.971 116.118C172.944 116.133 172.913 116.139 172.882 116.136Z" fill="#787878"/>
<path d="M159.714 113.138C159.677 113.138 159.641 113.125 159.613 113.102C159.585 113.078 159.566 113.046 159.56 113.01C159.135 110.955 156.475 107.848 156.45 107.816C156.422 107.783 156.409 107.742 156.412 107.699C156.415 107.657 156.434 107.617 156.466 107.589C156.499 107.562 156.541 107.55 156.583 107.553C156.625 107.557 156.665 107.576 156.693 107.608C156.802 107.736 159.429 110.808 159.871 112.946C159.875 112.966 159.876 112.987 159.872 113.008C159.869 113.028 159.861 113.048 159.85 113.066C159.838 113.083 159.823 113.098 159.806 113.11C159.789 113.122 159.769 113.13 159.749 113.134L159.714 113.138Z" fill="#787878"/>
<path d="M164.616 112.478C164.602 112.482 164.588 112.482 164.574 112.478C164.554 112.473 164.535 112.464 164.518 112.451C164.501 112.439 164.487 112.423 164.477 112.405C164.466 112.386 164.46 112.366 164.457 112.345C164.455 112.325 164.456 112.303 164.462 112.283C165.051 110.149 167.048 107.992 167.131 107.902C167.145 107.885 167.162 107.871 167.181 107.861C167.201 107.851 167.222 107.845 167.244 107.844C167.266 107.842 167.288 107.845 167.309 107.852C167.329 107.86 167.348 107.871 167.364 107.886C167.38 107.901 167.393 107.919 167.402 107.939C167.411 107.959 167.415 107.981 167.415 108.003C167.415 108.025 167.411 108.047 167.402 108.067C167.393 108.087 167.381 108.105 167.365 108.12C167.345 108.142 165.336 110.312 164.769 112.366C164.76 112.399 164.739 112.428 164.711 112.448C164.684 112.469 164.65 112.479 164.616 112.478Z" fill="#787878"/>
<path d="M175.064 101.256L174.424 91.4992L180.168 89.0256C180.168 89.0256 176.76 81.496 176.549 80.952C176.215 80.2251 175.682 79.6072 175.013 79.1696C174.322 78.7248 167.042 75.16 167.042 75.16L162.299 74.936L157.557 75.16C157.557 75.16 150.277 78.7248 149.582 79.16C148.914 79.5985 148.381 80.2161 148.046 80.9424C147.851 81.4864 144.434 89.016 144.434 89.016L150.194 91.4896L149.554 101.246C149.554 101.246 147.634 102.434 147.573 102.731C147.512 103.029 147.077 105.061 147.077 105.061C147.077 105.061 149.355 104.069 151.682 104.91C154.008 105.752 159.586 109.24 159.586 109.24L160.03 109.586L162.299 105.806L164.565 109.586L165.01 109.24C165.01 109.24 170.606 105.762 172.92 104.92C175.234 104.078 177.528 105.07 177.528 105.07C177.528 105.07 177.08 103.038 177.032 102.741C176.984 102.443 175.064 101.256 175.064 101.256Z" fill="white"/>
<path d="M160.03 109.736C159.995 109.736 159.961 109.723 159.934 109.701L159.486 109.355C159.445 109.33 153.893 105.899 151.608 105.071C149.323 104.242 147.128 105.205 147.128 105.215C147.101 105.227 147.071 105.231 147.042 105.227C147.012 105.224 146.984 105.211 146.962 105.192C146.939 105.173 146.923 105.149 146.913 105.121C146.903 105.094 146.901 105.064 146.907 105.035C146.907 105.013 147.352 103.007 147.4 102.715C147.448 102.424 148.491 101.717 149.387 101.163L150.027 91.6017L144.386 89.1729C144.347 89.1541 144.317 89.1224 144.299 89.0833C144.283 89.0433 144.283 88.9985 144.299 88.9585C144.334 88.8817 147.717 81.4321 147.909 80.8977C148.255 80.138 148.81 79.4921 149.509 79.0353C150.203 78.5905 157.189 75.1601 157.509 75.0161C157.525 75.0076 157.542 75.0022 157.56 75.0001L162.302 74.7761L167.061 75.0001C167.083 75.0005 167.105 75.006 167.125 75.0161C167.422 75.1601 174.421 78.5905 175.125 79.0353C175.825 79.4902 176.381 80.1366 176.725 80.8977C176.92 81.4321 180.302 88.8817 180.334 88.9585C180.35 88.9986 180.35 89.0432 180.334 89.0833C180.317 89.1224 180.286 89.1541 180.248 89.1729L174.606 91.6017L175.246 101.163C176.142 101.717 177.182 102.418 177.23 102.715C177.278 103.013 177.72 105.013 177.723 105.035C177.731 105.064 177.729 105.094 177.72 105.122C177.71 105.15 177.692 105.174 177.669 105.192C177.647 105.211 177.62 105.224 177.591 105.228C177.562 105.232 177.532 105.227 177.506 105.215C177.483 105.215 175.266 104.255 173.026 105.071C170.786 105.887 165.189 109.33 165.134 109.365L164.702 109.701C164.685 109.715 164.664 109.726 164.642 109.731C164.62 109.737 164.597 109.737 164.574 109.733C164.53 109.724 164.491 109.697 164.466 109.659L162.338 106.107L160.206 109.659C160.195 109.678 160.18 109.695 160.162 109.707C160.143 109.72 160.123 109.729 160.101 109.733L160.03 109.736ZM149.643 104.418C150.35 104.414 151.051 104.533 151.717 104.77C154.034 105.608 159.442 108.952 159.669 109.093L159.989 109.339L162.162 105.72C162.176 105.697 162.197 105.678 162.221 105.665C162.245 105.652 162.272 105.645 162.299 105.645C162.327 105.645 162.354 105.652 162.378 105.665C162.402 105.678 162.422 105.697 162.437 105.72L164.6 109.339L164.904 109.103C165.147 108.952 170.555 105.608 172.869 104.77C174.314 104.296 175.875 104.312 177.31 104.815C177.186 104.242 176.917 103 176.878 102.767C176.805 102.6 175.829 101.922 174.958 101.394C174.937 101.38 174.918 101.361 174.905 101.339C174.892 101.317 174.884 101.292 174.882 101.266L174.242 91.5121C174.239 91.4788 174.247 91.4457 174.265 91.417C174.282 91.3884 174.307 91.3658 174.338 91.3521L179.96 88.9425C179.467 87.8545 176.594 81.5153 176.408 81.0065C176.087 80.3123 175.577 79.7224 174.936 79.3041C174.296 78.8817 167.518 75.5665 167.01 75.3169L162.299 75.0961L157.605 75.3169C157.096 75.5665 150.334 78.8817 149.678 79.3041C149.039 79.7234 148.529 80.313 148.206 81.0065C148.024 81.5153 145.15 87.8545 144.654 88.9425L150.251 91.3521C150.281 91.3661 150.307 91.3889 150.324 91.4174C150.341 91.4459 150.349 91.4789 150.347 91.5121L149.707 101.266C149.705 101.292 149.697 101.317 149.684 101.339C149.671 101.361 149.652 101.38 149.63 101.394C148.77 101.922 147.797 102.6 147.71 102.779C147.624 102.959 147.39 104.242 147.278 104.815C148.04 104.556 148.839 104.422 149.643 104.418Z" fill="#263238"/>
<path d="M158.942 73.1279C158.541 73.2467 158.171 73.4497 157.854 73.7231C157.497 74.2172 157.166 74.7299 156.862 75.2591C156.862 75.2591 156.962 77.7839 157.259 78.8239C157.463 79.605 157.612 80.3995 157.704 81.2015L160.923 79.0223L162.606 78.5263C162.606 78.5263 165.826 79.4159 166.171 79.5151C166.517 79.6143 167.41 81.6463 167.771 81.2015C168.133 80.7567 169.051 76.2959 168.958 75.4415C168.866 74.5871 168.414 73.2623 168.065 72.9679C167.717 72.6735 166.465 72.6191 166.465 72.6191L158.942 73.1279Z" fill="white"/>
<path d="M167.64 81.4223C167.355 81.4223 167.08 81.0159 166.657 80.3663C166.516 80.1121 166.341 79.8776 166.139 79.6687L162.619 78.6927L160.993 79.1599L157.793 81.3263C157.77 81.342 157.744 81.3514 157.716 81.3538C157.689 81.3561 157.661 81.3512 157.636 81.3396C157.611 81.328 157.589 81.31 157.573 81.2875C157.557 81.265 157.547 81.2387 157.544 81.2111C157.452 80.4179 157.306 79.632 157.105 78.8591C156.805 77.8127 156.705 75.3615 156.702 75.2559C156.702 75.2256 156.71 75.1958 156.725 75.1695C157.033 74.6325 157.369 74.1123 157.733 73.6111C158.069 73.3169 158.466 73.0986 158.894 72.9711H158.933L166.459 72.4751C166.609 72.4751 167.781 72.5359 168.158 72.8623C168.536 73.1887 169.013 74.6479 169.118 75.4415C169.221 76.3119 168.283 80.8015 167.896 81.3007C167.866 81.3404 167.828 81.3723 167.783 81.3935C167.738 81.4147 167.689 81.4246 167.64 81.4223ZM162.606 78.3663C162.62 78.3629 162.634 78.3629 162.648 78.3663C162.648 78.3663 165.87 79.2559 166.216 79.3551C166.405 79.4095 166.593 79.6911 166.913 80.1871C167.118 80.5071 167.496 81.0831 167.64 81.0991C167.928 80.7119 168.888 76.3279 168.785 75.4671C168.683 74.6063 168.238 73.3423 167.95 73.0959C167.729 72.9039 166.92 72.8047 166.462 72.7759L158.971 73.2719C158.605 73.3788 158.266 73.562 157.976 73.8095C157.629 74.282 157.308 74.7735 157.016 75.2815C157.016 75.6303 157.137 77.8415 157.403 78.7631C157.589 79.4669 157.729 80.182 157.822 80.9039L160.824 78.8719C160.837 78.8623 160.852 78.8557 160.869 78.8527L162.552 78.3567L162.606 78.3663Z" fill="#263238"/>
<path d="M158.597 70.9488L158.696 75.1088C158.696 75.1088 158.795 76.1008 160.129 77.6688C161.464 79.2368 161.966 80.0912 162.51 80.0912C163.054 80.0912 166.088 77.5312 166.817 76.3792C167.249 75.7341 167.489 74.9794 167.509 74.2032L167.31 70.0432L158.645 70.1424L158.597 70.9488Z" fill="#D1D1D1"/>
<path d="M162.51 80.2672C162.024 80.2672 161.633 79.784 160.859 78.824C160.616 78.5232 160.337 78.184 160.008 77.7872C158.654 76.1872 158.539 75.1664 158.536 75.1248L158.437 70.9648L158.485 70.1712C158.487 70.1307 158.505 70.0928 158.535 70.0654C158.565 70.0379 158.604 70.0231 158.645 70.024L167.31 69.9248C167.351 69.9255 167.39 69.9413 167.419 69.9691C167.449 69.9969 167.467 70.0347 167.47 70.0752L167.669 74.2352C167.653 75.0456 167.404 75.8343 166.952 76.5072C166.222 77.6496 163.15 80.2672 162.51 80.2672ZM158.856 75.1056C158.856 75.1056 158.974 76.0656 160.254 77.5824C160.574 77.9728 160.865 78.3216 161.109 78.6224C161.797 79.4768 162.177 79.9472 162.51 79.9472C162.945 79.9472 165.937 77.5024 166.67 76.312C167.082 75.692 167.314 74.9696 167.339 74.2256L167.16 70.2192L158.795 70.3152L158.757 70.9552L158.856 75.1152V75.1056Z" fill="#263238"/>
<path d="M158.597 70.9489L158.696 75.1089C158.715 75.2432 158.748 75.3751 158.795 75.5025L163.781 72.6673L159.441 70.1489H158.645L158.597 70.9489Z" fill="#263238"/>
<path d="M158.795 75.6625C158.776 75.6656 158.756 75.6656 158.737 75.6625C158.716 75.6538 158.696 75.6404 158.68 75.6233C158.664 75.6061 158.652 75.5857 158.645 75.5633C158.593 75.4247 158.556 75.281 158.536 75.1345L158.437 70.9745L158.485 70.1809C158.487 70.1405 158.505 70.1025 158.535 70.0751C158.565 70.0477 158.604 70.0328 158.645 70.0337H159.441C159.469 70.0332 159.497 70.0398 159.521 70.0529L163.861 72.5745C163.885 72.5885 163.906 72.6087 163.92 72.6332C163.934 72.6576 163.942 72.6854 163.942 72.7137C163.942 72.742 163.934 72.7698 163.92 72.7943C163.906 72.8187 163.885 72.839 163.861 72.8529L158.875 75.6401C158.85 75.654 158.823 75.6617 158.795 75.6625ZM158.856 75.1057C158.864 75.1598 158.876 75.2132 158.891 75.2657L163.461 72.6673L159.4 70.3089H158.795L158.757 70.9489L158.856 75.1089V75.1057Z" fill="#263238"/>
<path d="M168.155 63.6432C168.376 63.5731 168.614 63.5825 168.828 63.6695C169.043 63.7566 169.22 63.916 169.329 64.12C169.733 64.8528 169.035 65.5888 168.776 65.9536C168.563 66.2285 168.317 66.4758 168.043 66.6896L168.155 63.6432Z" fill="#D1D1D1"/>
<path d="M168.043 66.8497C168.017 66.8498 167.992 66.8432 167.969 66.8305C167.942 66.8166 167.92 66.7954 167.905 66.7694C167.89 66.7433 167.882 66.7135 167.883 66.6833L167.995 63.6369C167.994 63.6003 168.006 63.5646 168.029 63.5359C168.052 63.5073 168.084 63.4875 168.12 63.4801C168.376 63.3963 168.653 63.406 168.903 63.5073C169.152 63.6086 169.358 63.7951 169.483 64.0337C169.886 64.7633 169.355 65.4641 169.038 65.8833L168.923 66.0369C168.702 66.3248 168.445 66.583 168.158 66.8049C168.127 66.8343 168.086 66.8504 168.043 66.8497ZM168.308 63.7713L168.216 66.3313C168.375 66.1904 168.52 66.0339 168.648 65.8641C168.68 65.8129 168.721 65.7585 168.766 65.6977C169.054 65.3201 169.489 64.7377 169.188 64.1969C169.108 64.0397 168.979 63.9131 168.82 63.8363C168.661 63.7595 168.482 63.7366 168.308 63.7713Z" fill="#263238"/>
<path d="M157.326 63.6432C157.106 63.5731 156.868 63.5825 156.653 63.6695C156.439 63.7566 156.261 63.916 156.152 64.12C155.749 64.8528 156.446 65.5888 156.702 65.9536C156.917 66.2282 157.164 66.4754 157.438 66.6896L157.326 63.6432Z" fill="#D1D1D1"/>
<path d="M157.439 66.8496C157.403 66.8492 157.368 66.8368 157.34 66.8144C157.053 66.5925 156.796 66.3343 156.575 66.0464L156.46 65.8928C156.14 65.4736 155.612 64.7728 156.015 64.0432C156.14 63.8047 156.346 63.6182 156.595 63.5168C156.845 63.4155 157.122 63.4058 157.378 63.4896C157.409 63.4997 157.437 63.5193 157.456 63.5457C157.476 63.5721 157.486 63.604 157.487 63.6368L157.599 66.6832C157.6 66.7134 157.592 66.7432 157.577 66.7693C157.562 66.7953 157.539 66.8165 157.512 66.8304C157.49 66.8431 157.465 66.8498 157.439 66.8496ZM157.016 63.7584C156.867 63.7555 156.719 63.7951 156.591 63.8727C156.463 63.9504 156.36 64.0627 156.293 64.1968C155.992 64.744 156.428 65.32 156.716 65.6976C156.76 65.7584 156.802 65.8128 156.834 65.864C156.962 66.0338 157.107 66.1904 157.266 66.3312L157.173 63.7712C157.121 63.763 157.069 63.7587 157.016 63.7584Z" fill="#263238"/>
<path d="M161.612 57.1665C160.753 57.2619 159.932 57.5747 159.228 58.0753C158.653 58.471 158.208 59.0276 157.948 59.6753C157.524 60.8062 157.308 62.0038 157.308 63.2113C157.308 63.5953 157.439 68.8657 157.759 69.8929C158.079 70.9201 160.908 73.0417 162.13 73.3009C163.352 73.5601 163.928 73.2369 164.636 72.9137C165.343 72.5905 167.656 70.9233 167.912 70.1521C168.168 69.3809 168.517 62.4721 167.848 59.9345C167.48 58.5361 164.968 57.0545 163.608 57.0545C162.941 57.0528 162.274 57.0902 161.612 57.1665Z" fill="#D1D1D1"/>
<path d="M162.952 73.5408C162.665 73.5382 162.379 73.506 162.098 73.4448C160.85 73.1792 157.938 71.0352 157.618 69.9248C157.298 68.8688 157.16 63.5536 157.16 63.2048C157.159 61.9796 157.376 60.7638 157.8 59.6144C158.069 58.9407 158.532 58.3625 159.131 57.9536C159.858 57.4372 160.703 57.1135 161.589 57.0128C162.258 56.9291 162.931 56.8832 163.605 56.8752C165.064 56.8752 167.627 58.4752 168.002 59.8864C168.677 62.4464 168.322 69.4288 168.063 70.1936C167.781 71.0384 165.378 72.7536 164.703 73.0544L164.568 73.1152C164.071 73.3827 163.517 73.5285 162.952 73.5408ZM163.608 57.1888C162.947 57.1954 162.286 57.2413 161.631 57.3264C160.799 57.4189 160.005 57.7218 159.323 58.2064C158.775 58.5784 158.351 59.1054 158.104 59.72C157.686 60.8323 157.469 62.0102 157.464 63.1984C157.464 63.8032 157.608 68.872 157.909 69.832C158.21 70.792 160.933 72.872 162.159 73.1312C162.929 73.32 163.742 73.2054 164.431 72.8112L164.565 72.7504C165.263 72.4304 167.522 70.7856 167.765 70.0816C168.015 69.3296 168.36 62.4752 167.698 59.9536C167.359 58.68 164.936 57.1888 163.608 57.1888Z" fill="#263238"/>
<path d="M163.086 59.3391C163.016 59.3387 162.947 59.3334 162.878 59.3231C161.784 59.1343 160.084 57.6591 159.998 57.5983C159.978 57.5802 159.962 57.5572 159.953 57.5314C159.944 57.5056 159.942 57.478 159.947 57.4511C159.95 57.4245 159.961 57.3993 159.977 57.378C159.993 57.3566 160.015 57.3399 160.04 57.3295C161.003 56.9196 162.031 56.6792 163.076 56.6191C164.472 56.6191 165.864 57.6367 165.924 57.6783C165.944 57.6929 165.96 57.7117 165.971 57.7334C165.982 57.755 165.988 57.7788 165.988 57.8031C165.989 57.8274 165.984 57.8514 165.974 57.8735C165.964 57.8956 165.949 57.9153 165.931 57.9311C165.88 57.9919 164.219 59.3391 163.086 59.3391ZM160.44 57.5279C160.923 57.9183 162.148 58.8687 162.948 59.0063C163.748 59.1439 165.112 58.1775 165.585 57.8159C165.176 57.5535 164.12 56.9391 163.105 56.9391C162.19 56.9873 161.29 57.1862 160.44 57.5279Z" fill="#263238"/>
<path d="M158.098 59.24C158.098 59.24 158.869 60.0816 158.834 60.84C158.799 61.5984 157.4 63.0064 157.4 63.0064C157.4 63.0064 157.144 61.4032 158.098 59.24Z" fill="#263238"/>
<path d="M157.4 63.1792C157.384 63.1822 157.368 63.1822 157.352 63.1792C157.324 63.1706 157.299 63.1544 157.279 63.1323C157.26 63.1103 157.248 63.0833 157.243 63.0544C157.243 62.984 156.99 61.368 157.953 59.1824C157.964 59.1584 157.98 59.1374 158.001 59.1212C158.022 59.105 158.046 59.0942 158.072 59.0896C158.098 59.0848 158.125 59.0871 158.15 59.096C158.176 59.105 158.198 59.1205 158.216 59.1408C158.251 59.176 159.032 60.0432 158.993 60.872C158.955 61.7008 157.662 62.9936 157.515 63.1408C157.483 63.168 157.442 63.1817 157.4 63.1792ZM158.142 59.5472C157.727 60.5275 157.52 61.5834 157.534 62.648C157.979 62.1584 158.651 61.3232 158.673 60.8464C158.638 60.3682 158.452 59.9135 158.142 59.5472Z" fill="#263238"/>
<path d="M167.531 59.24C167.531 59.24 166.76 60.0816 166.798 60.84C166.837 61.5984 168.225 62.76 168.225 62.76C168.225 62.76 168.046 60.28 167.531 59.24Z" fill="#263238"/>
<path d="M168.225 62.92C168.189 62.9212 168.154 62.9086 168.126 62.8848C167.979 62.7632 166.676 61.6784 166.638 60.8624C166.6 60.0464 167.38 59.1664 167.412 59.1312C167.43 59.1117 167.452 59.0968 167.476 59.0878C167.501 59.0787 167.527 59.0758 167.553 59.0793C167.579 59.0828 167.604 59.0925 167.625 59.1077C167.646 59.1229 167.663 59.143 167.675 59.1664C168.196 60.2096 168.379 62.648 168.385 62.7504C168.388 62.7814 168.382 62.8125 168.367 62.8399C168.352 62.8672 168.33 62.8895 168.302 62.904C168.278 62.9154 168.252 62.9209 168.225 62.92ZM167.48 59.544C167.169 59.911 166.983 60.367 166.948 60.8464C166.968 61.3008 167.588 61.9664 168.02 62.376C167.944 61.4151 167.763 60.4654 167.48 59.544Z" fill="#263238"/>
<path d="M160.152 65.6624C159.748 65.6669 159.354 65.5424 159.026 65.3072C158.997 65.2797 158.979 65.2423 158.976 65.2023C158.973 65.1623 158.985 65.1227 159.01 65.0913C159.035 65.06 159.071 65.0391 159.111 65.0328C159.15 65.0266 159.191 65.0354 159.224 65.0576C159.259 65.0864 160.079 65.6976 161.247 65.0096C161.283 64.9884 161.326 64.9822 161.366 64.9923C161.407 65.0025 161.442 65.0283 161.464 65.064C161.476 65.082 161.483 65.102 161.487 65.123C161.49 65.144 161.489 65.1655 161.484 65.1861C161.479 65.2068 161.47 65.2262 161.457 65.2432C161.444 65.2601 161.428 65.2743 161.41 65.2848C161.033 65.5244 160.598 65.6551 160.152 65.6624Z" fill="#263238"/>
<path d="M165.291 65.6623C164.887 65.6683 164.492 65.5438 164.165 65.3071C164.148 65.2943 164.134 65.2783 164.124 65.26C164.113 65.2417 164.107 65.2215 164.105 65.2006C164.102 65.1797 164.104 65.1585 164.11 65.1383C164.116 65.1181 164.126 65.0994 164.139 65.0831C164.166 65.0502 164.204 65.029 164.246 65.0242C164.288 65.0194 164.33 65.0314 164.363 65.0575C164.402 65.0863 165.218 65.6975 166.382 65.0095C166.401 64.9986 166.421 64.9913 166.441 64.9882C166.462 64.985 166.484 64.9859 166.504 64.991C166.525 64.996 166.544 65.0051 166.561 65.0176C166.578 65.0301 166.592 65.0459 166.603 65.0639C166.614 65.082 166.621 65.102 166.625 65.1229C166.628 65.1438 166.627 65.1651 166.622 65.1856C166.617 65.2061 166.608 65.2254 166.595 65.2424C166.583 65.2594 166.567 65.2738 166.549 65.2847C166.172 65.524 165.737 65.6546 165.291 65.6623Z" fill="#263238"/>
<path d="M158.722 64.0592C158.698 64.0593 158.674 64.0539 158.652 64.0434C158.631 64.0328 158.612 64.0175 158.597 63.9984C158.571 63.9653 158.559 63.9231 158.564 63.8811C158.568 63.8392 158.59 63.8008 158.622 63.7744C159.055 63.3996 159.597 63.1752 160.168 63.1348C160.738 63.0944 161.307 63.2402 161.787 63.5504C161.804 63.5623 161.819 63.5774 161.83 63.595C161.842 63.6125 161.849 63.6322 161.853 63.6527C161.856 63.6733 161.856 63.6944 161.851 63.7147C161.847 63.7351 161.838 63.7543 161.826 63.7712C161.814 63.7885 161.798 63.8033 161.78 63.8146C161.762 63.8259 161.743 63.8335 161.722 63.8371C161.701 63.8407 161.68 63.8401 161.659 63.8354C161.638 63.8306 161.619 63.8219 161.602 63.8096C161.179 63.5357 160.679 63.4083 160.177 63.447C159.675 63.4858 159.199 63.6885 158.824 64.024C158.794 64.046 158.759 64.0583 158.722 64.0592Z" fill="#263238"/>
<path d="M163.675 64.0592C163.651 64.0596 163.628 64.0543 163.607 64.0437C163.585 64.0331 163.567 64.0176 163.553 63.9984C163.527 63.9657 163.514 63.9238 163.518 63.8818C163.523 63.8399 163.543 63.8013 163.576 63.7744C164.008 63.3996 164.55 63.1752 165.121 63.1348C165.691 63.0944 166.26 63.2402 166.74 63.5504C166.758 63.5623 166.772 63.5774 166.784 63.595C166.795 63.6125 166.802 63.6322 166.806 63.6527C166.81 63.6733 166.809 63.6944 166.804 63.7147C166.8 63.7351 166.791 63.7543 166.779 63.7712C166.767 63.7885 166.751 63.8033 166.733 63.8146C166.716 63.8259 166.696 63.8335 166.675 63.8371C166.654 63.8407 166.633 63.8401 166.612 63.8354C166.591 63.8306 166.572 63.8219 166.555 63.8096C166.132 63.5357 165.632 63.4083 165.13 63.447C164.628 63.4858 164.153 63.6885 163.777 64.024C163.748 64.0468 163.712 64.0592 163.675 64.0592Z" fill="#263238"/>
<path d="M162.802 68.3919C162.587 68.3931 162.376 68.3383 162.189 68.2328C162.002 68.1272 161.846 67.9747 161.736 67.7903C161.717 67.7529 161.713 67.7095 161.726 67.6693C161.739 67.6292 161.767 67.5957 161.804 67.5759C161.841 67.5563 161.885 67.552 161.925 67.5639C161.966 67.5759 162 67.6031 162.021 67.6399C162.107 67.7827 162.231 67.8985 162.379 67.9743C162.527 68.0501 162.694 68.0828 162.86 68.0687C163.047 68.0667 163.23 68.0186 163.394 67.9288C163.559 67.8389 163.698 67.71 163.8 67.5535C163.812 67.5361 163.827 67.5211 163.845 67.5095C163.862 67.4979 163.882 67.4899 163.903 67.4858C163.923 67.4818 163.945 67.4819 163.965 67.4861C163.986 67.4903 164.005 67.4985 164.023 67.5103C164.04 67.5221 164.055 67.5372 164.067 67.5547C164.078 67.5723 164.086 67.5919 164.09 67.6126C164.095 67.6332 164.094 67.6545 164.09 67.6751C164.086 67.6957 164.078 67.7153 164.066 67.7327C163.935 67.9294 163.759 68.0918 163.553 68.206C163.346 68.3202 163.115 68.3828 162.879 68.3887L162.802 68.3919Z" fill="#263238"/>
<path d="M163.823 70.04H161.989C161.947 70.04 161.906 70.0231 161.876 69.9931C161.846 69.9631 161.829 69.9224 161.829 69.88C161.829 69.8375 161.846 69.7968 161.876 69.7668C161.906 69.7368 161.947 69.72 161.989 69.72H163.823C163.865 69.72 163.906 69.7368 163.936 69.7668C163.966 69.7968 163.983 69.8375 163.983 69.88C163.983 69.9224 163.966 69.9631 163.936 69.9931C163.906 70.0231 163.865 70.04 163.823 70.04Z" fill="#263238"/>
<path d="M157.355 101.666C157.334 101.668 157.313 101.665 157.292 101.659C157.272 101.653 157.254 101.643 157.237 101.629C157.221 101.615 157.208 101.599 157.198 101.58C157.188 101.562 157.182 101.541 157.18 101.52C157.178 101.499 157.181 101.478 157.187 101.458C157.193 101.438 157.203 101.419 157.217 101.403C157.231 101.387 157.247 101.373 157.266 101.363C157.284 101.354 157.305 101.348 157.326 101.346C157.409 101.33 165.889 99.7201 167.288 99.5089C167.309 99.5057 167.33 99.5067 167.351 99.5119C167.371 99.517 167.391 99.5261 167.408 99.5388C167.425 99.5514 167.439 99.5673 167.45 99.5855C167.461 99.6037 167.468 99.6239 167.472 99.6449C167.475 99.6659 167.474 99.6873 167.469 99.7079C167.463 99.7285 167.454 99.748 167.442 99.765C167.429 99.7821 167.413 99.7965 167.395 99.8075C167.377 99.8185 167.357 99.8257 167.336 99.8289C165.944 100.04 157.47 101.65 157.384 101.666H157.355Z" fill="#263238"/>
<path d="M155.166 101.381C155.145 101.384 155.124 101.382 155.103 101.377C155.083 101.372 155.064 101.363 155.047 101.35C155.03 101.337 155.015 101.321 155.005 101.303C154.994 101.284 154.987 101.264 154.984 101.243C154.981 101.222 154.982 101.201 154.988 101.18C154.993 101.16 155.002 101.14 155.015 101.123C155.028 101.107 155.044 101.092 155.062 101.082C155.08 101.071 155.101 101.064 155.122 101.061C155.294 101.01 159.381 99.7808 160.44 99.6432C160.482 99.6372 160.525 99.6484 160.56 99.6742C160.594 99.7 160.616 99.7383 160.622 99.7808C160.628 99.8232 160.617 99.8663 160.591 99.9005C160.566 99.9347 160.527 99.9572 160.485 99.9632C159.448 100.101 155.256 101.355 155.211 101.368C155.197 101.376 155.182 101.38 155.166 101.381Z" fill="#263238"/>
<path d="M150.178 91.6592H150.158C150.116 91.6536 150.078 91.6317 150.051 91.5982C150.025 91.5647 150.013 91.5223 150.018 91.48L151.195 82.2C151.201 82.158 151.223 82.1199 151.256 82.0941C151.29 82.0683 151.332 82.0569 151.374 82.0624C151.416 82.0679 151.454 82.0899 151.48 82.1235C151.506 82.1571 151.517 82.1996 151.512 82.2416L150.334 91.5216C150.33 91.5597 150.311 91.5949 150.282 91.6202C150.253 91.6456 150.216 91.6595 150.178 91.6592Z" fill="#263238"/>
<path d="M174.42 91.6593C174.384 91.6597 174.349 91.6478 174.321 91.6258C174.292 91.6037 174.272 91.5727 174.264 91.5377L172.241 83.1121C172.236 83.0915 172.235 83.0701 172.238 83.0491C172.241 83.0281 172.249 83.0079 172.26 82.9897C172.271 82.9715 172.285 82.9557 172.302 82.9432C172.319 82.9307 172.339 82.9218 172.36 82.9169C172.401 82.9082 172.444 82.9156 172.479 82.9376C172.515 82.9597 172.541 82.9947 172.552 83.0353L174.574 91.4641C174.579 91.4845 174.58 91.5058 174.577 91.5266C174.574 91.5474 174.567 91.5673 174.556 91.5853C174.545 91.6032 174.53 91.6187 174.513 91.6309C174.496 91.643 174.476 91.6516 174.456 91.6561L174.42 91.6593Z" fill="#263238"/>
</g>
<defs>
<clipPath id="clip0_102_559">
<rect width="325" height="182" fill="white"/>
</clipPath>
</defs>
</svg>
