<svg width="20" height="20" viewBox="0 0 20 20" fill="none" xmlns="http://www.w3.org/2000/svg">
<g clip-path="url(#clip0_1586_7673)">
<path d="M15.1556 14.8613C13.8757 14.8613 12.8203 15.8942 12.8203 17.1966C12.8203 18.4765 13.8532 19.5319 15.1556 19.5319C16.4355 19.5319 17.4909 18.499 17.4909 17.1966C17.4684 15.9167 16.4355 14.8613 15.1556 14.8613Z" fill="white"/>
<path d="M19.2661 3.72371C19.2212 3.72371 19.1539 3.70126 19.0865 3.70126H4.94004L4.71549 2.19679C4.58076 1.20878 3.72748 0.467773 2.71702 0.467773H0.898188C0.404185 0.467773 0 0.871959 0 1.36596C0 1.85997 0.404185 2.26415 0.898188 2.26415H2.71702C2.82929 2.26415 2.91911 2.35397 2.94157 2.46625L4.33376 11.9422C4.5134 13.1323 5.54631 14.0304 6.75887 14.0304H16.1C17.2677 14.0304 18.2781 13.1996 18.5251 12.0544L19.9847 4.75663C20.0745 4.28508 19.7601 3.81353 19.2661 3.72371Z" fill="white"/>
<path d="M9.43478 17.0843C9.38987 15.8493 8.35695 14.8613 7.12194 14.8613C5.81957 14.9287 4.83156 16.0065 4.87647 17.2864C4.92138 18.5214 5.93184 19.5095 7.16685 19.5095H7.21176C8.49168 19.4421 9.50214 18.3643 9.43478 17.0843Z" fill="white"/>
</g>
<defs>
<clipPath id="clip0_1586_7673">
<rect width="20" height="20" fill="white"/>
</clipPath>
</defs>
</svg>
