<svg width="135" height="24" viewBox="0 0 135 24" fill="none" xmlns="http://www.w3.org/2000/svg">
<path d="M12.5915 2.20818V5.26394H8.44281V17.8662H4.62868V5.26394H0.47998V2.20818H12.5915Z" fill="#262626"/>
<path d="M13.7473 11.6208C13.7473 10.342 13.9853 9.21933 14.4611 8.25279C14.9518 7.28625 15.6135 6.54275 16.4462 6.02231C17.2789 5.50186 18.2083 5.24164 19.2343 5.24164C20.1117 5.24164 20.8775 5.42007 21.5317 5.77695C22.2009 6.13383 22.7139 6.60223 23.0708 7.18216V5.42007H26.8849V17.8662H23.0708V16.1041C22.699 16.684 22.1786 17.1524 21.5094 17.5093C20.8552 17.8662 20.0894 18.0446 19.212 18.0446C18.2009 18.0446 17.2789 17.7844 16.4462 17.2639C15.6135 16.7286 14.9518 15.9777 14.4611 15.0112C13.9853 14.0297 13.7473 12.8996 13.7473 11.6208ZM23.0708 11.6431C23.0708 10.6915 22.8031 9.94052 22.2678 9.39034C21.7473 8.84015 21.1079 8.56506 20.3496 8.56506C19.5912 8.56506 18.9444 8.84015 18.4091 9.39034C17.8886 9.92565 17.6284 10.6691 17.6284 11.6208C17.6284 12.5725 17.8886 13.3309 18.4091 13.8959C18.9444 14.4461 19.5912 14.7212 20.3496 14.7212C21.1079 14.7212 21.7473 14.4461 22.2678 13.8959C22.8031 13.3457 23.0708 12.5948 23.0708 11.6431Z" fill="#262626"/>
<path d="M33.4584 1.3606V17.8662H29.6442V1.3606H33.4584Z" fill="#262626"/>
<path d="M43.8284 17.8662L40.0366 12.6468V17.8662H36.2224V1.3606H40.0366V10.4833L43.8061 5.42007H48.5124L43.3377 11.6654L48.557 17.8662H43.8284Z" fill="#262626"/>
<path d="M57.661 5.28625C59.0885 5.28625 60.2335 5.76208 61.096 6.71376C61.9584 7.65056 62.3897 8.94424 62.3897 10.5948V17.8662H58.5978V11.1078C58.5978 10.2751 58.3822 9.62825 57.951 9.16729C57.5198 8.70632 56.9398 8.47584 56.2112 8.47584C55.4826 8.47584 54.9027 8.70632 54.4714 9.16729C54.0402 9.62825 53.8246 10.2751 53.8246 11.1078V17.8662H50.0105V1.3606H53.8246V7.09294C54.2112 6.54275 54.7391 6.10409 55.4082 5.77695C56.0774 5.44982 56.8283 5.28625 57.661 5.28625Z" fill="#262626"/>
<path d="M76.7724 11.4424C76.7724 11.7993 76.7501 12.171 76.7055 12.5576H68.0735C68.133 13.3309 68.3784 13.9257 68.8096 14.342C69.2557 14.7435 69.7985 14.9442 70.4379 14.9442C71.3895 14.9442 72.0512 14.5428 72.423 13.7398H76.4825C76.2743 14.5576 75.8951 15.2937 75.3449 15.948C74.8096 16.6022 74.133 17.1152 73.3152 17.487C72.4973 17.8587 71.5828 18.0446 70.5717 18.0446C69.3524 18.0446 68.2669 17.7844 67.3152 17.2639C66.3635 16.7435 65.62 16 65.0847 15.0335C64.5494 14.0669 64.2817 12.9368 64.2817 11.6431C64.2817 10.3494 64.5419 9.21933 65.0624 8.25279C65.5977 7.28625 66.3412 6.54275 67.2929 6.02231C68.2446 5.50186 69.3375 5.24164 70.5717 5.24164C71.7762 5.24164 72.8468 5.49442 73.7836 6C74.7204 6.50558 75.449 7.22677 75.9695 8.16357C76.5048 9.10037 76.7724 10.1933 76.7724 11.4424ZM72.8691 10.4387C72.8691 9.78439 72.646 9.26394 72.1999 8.87732C71.7538 8.49071 71.1962 8.2974 70.5271 8.2974C69.8877 8.2974 69.3449 8.48327 68.8988 8.85502C68.4676 9.22677 68.1999 9.75465 68.0959 10.4387H72.8691Z" fill="#262626"/>
<path d="M78.0262 11.6208C78.0262 10.342 78.2641 9.21933 78.74 8.25279C79.2307 7.28625 79.8924 6.54275 80.7251 6.02231C81.5578 5.50186 82.4872 5.24164 83.5132 5.24164C84.3905 5.24164 85.1563 5.42007 85.8106 5.77695C86.4797 6.13383 86.9928 6.60223 87.3496 7.18216V5.42007H91.1638V17.8662H87.3496V16.1041C86.9779 16.684 86.4574 17.1524 85.7883 17.5093C85.134 17.8662 84.3682 18.0446 83.4909 18.0446C82.4797 18.0446 81.5578 17.7844 80.7251 17.2639C79.8924 16.7286 79.2307 15.9777 78.74 15.0112C78.2641 14.0297 78.0262 12.8996 78.0262 11.6208ZM87.3496 11.6431C87.3496 10.6915 87.082 9.94052 86.5467 9.39034C86.0262 8.84015 85.3868 8.56506 84.6284 8.56506C83.8701 8.56506 83.2232 8.84015 82.6879 9.39034C82.1675 9.92565 81.9072 10.6691 81.9072 11.6208C81.9072 12.5725 82.1675 13.3309 82.6879 13.8959C83.2232 14.4461 83.8701 14.7212 84.6284 14.7212C85.3868 14.7212 86.0262 14.4461 86.5467 13.8959C87.082 13.3457 87.3496 12.5948 87.3496 11.6431Z" fill="#262626"/>
<path d="M97.7372 1.3606V17.8662H93.9231V1.3606H97.7372Z" fill="#262626"/>
<path d="M102.42 4.12639C101.75 4.12639 101.2 3.93309 100.769 3.54647C100.353 3.14498 100.144 2.65428 100.144 2.07435C100.144 1.47955 100.353 0.988848 100.769 0.602231C101.2 0.200744 101.75 0 102.42 0C103.074 0 103.609 0.200744 104.025 0.602231C104.457 0.988848 104.672 1.47955 104.672 2.07435C104.672 2.65428 104.457 3.14498 104.025 3.54647C103.609 3.93309 103.074 4.12639 102.42 4.12639ZM104.315 5.42007V17.8662H100.501V5.42007H104.315Z" fill="#262626"/>
<path d="M114.663 5.28625C116.12 5.28625 117.28 5.76208 118.143 6.71376C119.02 7.65056 119.459 8.94424 119.459 10.5948V17.8662H115.667V11.1078C115.667 10.2751 115.451 9.62825 115.02 9.16729C114.589 8.70632 114.009 8.47584 113.28 8.47584C112.552 8.47584 111.972 8.70632 111.54 9.16729C111.109 9.62825 110.894 10.2751 110.894 11.1078V17.8662H107.079V5.42007H110.894V7.07063C111.28 6.52045 111.801 6.08922 112.455 5.77695C113.109 5.44982 113.845 5.28625 114.663 5.28625Z" fill="#262626"/>
<path d="M126.838 5.24164C127.715 5.24164 128.481 5.42007 129.135 5.77695C129.804 6.13383 130.317 6.60223 130.674 7.18216V5.42007H134.488V17.8439C134.488 18.9888 134.258 20.0223 133.797 20.9442C133.351 21.881 132.659 22.6245 131.722 23.1747C130.801 23.7249 129.648 24 128.265 24C126.421 24 124.927 23.5613 123.782 22.684C122.637 21.8216 121.983 20.6468 121.819 19.1599H125.589C125.708 19.6357 125.99 20.0074 126.436 20.2751C126.882 20.5576 127.433 20.6989 128.087 20.6989C128.875 20.6989 129.499 20.4684 129.96 20.0074C130.436 19.5613 130.674 18.8402 130.674 17.8439V16.0818C130.302 16.6617 129.789 17.1375 129.135 17.5093C128.481 17.8662 127.715 18.0446 126.838 18.0446C125.812 18.0446 124.882 17.7844 124.05 17.2639C123.217 16.7286 122.555 15.9777 122.064 15.0112C121.589 14.0297 121.351 12.8996 121.351 11.6208C121.351 10.342 121.589 9.21933 122.064 8.25279C122.555 7.28625 123.217 6.54275 124.05 6.02231C124.882 5.50186 125.812 5.24164 126.838 5.24164ZM130.674 11.6431C130.674 10.6915 130.406 9.94052 129.871 9.39034C129.351 8.84015 128.711 8.56506 127.953 8.56506C127.195 8.56506 126.548 8.84015 126.012 9.39034C125.492 9.92565 125.232 10.6691 125.232 11.6208C125.232 12.5725 125.492 13.3309 126.012 13.8959C126.548 14.4461 127.195 14.7212 127.953 14.7212C128.711 14.7212 129.351 14.4461 129.871 13.8959C130.406 13.3457 130.674 12.5948 130.674 11.6431Z" fill="#262626"/>
</svg>
