<svg width="16" height="18" viewBox="0 0 16 18" fill="none" xmlns="http://www.w3.org/2000/svg">
<path d="M13.458 0.5H2.56461C1.67743 0.5 0.898438 1.16085 0.898438 1.94308V16.5343C0.898438 16.7961 0.978922 17.0143 1.10864 17.1829C1.26376 17.3845 1.51354 17.5 1.78138 17.4999C2.0346 17.4999 2.30421 17.3979 2.55319 17.2053L7.42688 13.4585C7.5774 13.3421 7.79362 13.2754 8.01843 13.2754C8.24315 13.2754 8.45892 13.3421 8.60989 13.4588L13.4673 17.2047C13.7171 17.3979 13.9682 17.5 14.2209 17.5C14.6484 17.5 15.0651 17.2014 15.0651 16.5343V1.94308C15.0651 1.16085 14.3452 0.5 13.458 0.5Z" fill="white"/>
</svg>
